<!-- Generated by IcoMoon.io -->
<svg version="1.1" xmlns="http://www.w3.org/2000/svg" width="64" height="64" viewBox="0 0 64 64">
<title>amazonaws</title>
<path d="M18.035 26.763c0 0.789 0.085 1.427 0.235 1.893 0.171 0.469 0.384 0.981 0.683 1.536 0.107 0.168 0.149 0.339 0.149 0.488 0 0.213-0.128 0.427-0.405 0.64l-1.341 0.893c-0.154 0.112-0.345 0.183-0.553 0.192l-0.002 0c-0.213 0-0.427-0.107-0.637-0.299-0.277-0.297-0.529-0.624-0.749-0.973l-0.016-0.027c-0.195-0.324-0.415-0.736-0.619-1.157l-0.043-0.099c-1.659 1.957-3.747 2.936-6.259 2.936-1.787 0-3.213-0.509-4.256-1.531-1.043-1.024-1.573-2.384-1.573-4.088 0-1.808 0.637-3.28 1.936-4.384 1.299-1.107 3.021-1.661 5.213-1.661 0.725 0 1.469 0.064 2.256 0.171 0.789 0.107 1.6 0.277 2.448 0.469v-1.555c0-1.619-0.339-2.747-1-3.405-0.68-0.661-1.829-0.979-3.467-0.979-0.747 0-1.515 0.083-2.301 0.275s-1.555 0.427-2.299 0.725c-0.201 0.094-0.449 0.188-0.704 0.266l-0.043 0.011c-0.1 0.033-0.216 0.055-0.336 0.061l-0.003 0c-0.299 0-0.448-0.213-0.448-0.659v-1.043c0-0.341 0.043-0.597 0.149-0.747 0.159-0.191 0.359-0.342 0.587-0.441l0.010-0.004c0.744-0.384 1.637-0.704 2.68-0.96 0.961-0.256 2.064-0.403 3.201-0.403 0.043 0 0.085 0 0.128 0.001l-0.007-0c2.533 0 4.384 0.576 5.576 1.725 1.171 1.147 1.765 2.893 1.765 5.235v6.896zM9.395 30c0.701 0 1.424-0.128 2.192-0.384 0.765-0.256 1.448-0.723 2.021-1.36 0.341-0.405 0.597-0.853 0.725-1.365 0.125-0.509 0.213-1.128 0.213-1.851v-0.893c-0.528-0.137-1.193-0.264-1.87-0.353l-0.090-0.010c-0.6-0.080-1.294-0.127-1.999-0.128h-0.001c-1.427 0-2.469 0.277-3.173 0.853-0.701 0.573-1.040 1.381-1.040 2.445 0 1 0.253 1.747 0.787 2.256 0.509 0.533 1.253 0.789 2.235 0.789zM26.488 32.299c-0.384 0-0.64-0.064-0.811-0.213-0.171-0.128-0.32-0.427-0.448-0.829l-5-16.456c-0.091-0.248-0.158-0.537-0.191-0.837l-0.001-0.016c0-0.341 0.171-0.533 0.509-0.533h2.088c0.403 0 0.68 0.067 0.827 0.213 0.173 0.128 0.301 0.427 0.427 0.832l3.579 14.091 3.32-14.091c0.107-0.427 0.235-0.704 0.403-0.832 0.218-0.136 0.482-0.216 0.765-0.216 0.031 0 0.062 0.001 0.092 0.003l-0.004-0h1.701c0.405 0 0.683 0.067 0.853 0.213 0.168 0.128 0.32 0.427 0.403 0.832l3.363 14.261 3.683-14.261c0.128-0.427 0.277-0.704 0.427-0.832 0.21-0.136 0.467-0.216 0.743-0.216 0.030 0 0.060 0.001 0.090 0.003l-0.004-0h1.981c0.339 0 0.533 0.173 0.533 0.533 0 0.107-0.024 0.213-0.045 0.341-0.038 0.204-0.090 0.383-0.156 0.554l0.007-0.021-5.128 16.453c-0.128 0.427-0.277 0.701-0.448 0.829-0.208 0.135-0.462 0.215-0.734 0.215-0.026 0-0.052-0.001-0.077-0.002l0.004 0h-1.832c-0.403 0-0.68-0.064-0.853-0.213-0.168-0.149-0.317-0.427-0.4-0.853l-3.301-13.728-3.28 13.707c-0.107 0.427-0.232 0.704-0.4 0.853-0.173 0.149-0.472 0.213-0.853 0.213zM53.837 32.872c-1.107 0-2.213-0.128-3.277-0.381-1.064-0.256-1.893-0.533-2.448-0.853-0.341-0.189-0.573-0.403-0.659-0.595-0.080-0.176-0.127-0.381-0.128-0.597v-1.086c0-0.445 0.171-0.659 0.488-0.659 0.128 0 0.256 0.021 0.384 0.064s0.32 0.128 0.533 0.213c0.723 0.32 1.509 0.573 2.341 0.744 0.851 0.171 1.68 0.256 2.533 0.256 1.339 0 2.384-0.235 3.107-0.704 0.668-0.409 1.107-1.135 1.107-1.963 0-0.021-0-0.041-0.001-0.061l0 0.003c0.001-0.018 0.001-0.038 0.001-0.059 0-0.556-0.219-1.060-0.575-1.432l0.001 0.001c-0.384-0.403-1.109-0.765-2.152-1.107l-3.085-0.96c-1.555-0.488-2.704-1.211-3.405-2.168-0.66-0.844-1.061-1.919-1.067-3.087v-0.001c0-0.893 0.195-1.68 0.576-2.363 0.384-0.68 0.893-1.277 1.533-1.744 0.64-0.491 1.36-0.853 2.213-1.107 0.853-0.256 1.747-0.363 2.683-0.363 0.467 0 0.957 0.021 1.427 0.085 0.488 0.064 0.933 0.149 1.381 0.235 0.427 0.107 0.832 0.213 1.213 0.339 0.384 0.128 0.683 0.256 0.896 0.384 0.256 0.131 0.47 0.311 0.637 0.529l0.003 0.005c0.12 0.178 0.191 0.398 0.191 0.634 0 0.024-0.001 0.047-0.002 0.070l0-0.003v1c0 0.448-0.171 0.683-0.491 0.683-0.301-0.035-0.574-0.126-0.819-0.262l0.011 0.006c-1.158-0.525-2.511-0.831-3.935-0.831-0.053 0-0.105 0-0.158 0.001l0.008-0c-1.213 0-2.173 0.189-2.832 0.595-0.661 0.405-1 1.021-1 1.893 0 0.597 0.213 1.109 0.64 1.512 0.424 0.405 1.211 0.811 2.339 1.173l3.024 0.955c1.531 0.491 2.64 1.173 3.299 2.045s0.979 1.872 0.979 2.979c0 0.915-0.192 1.747-0.552 2.469-0.384 0.725-0.896 1.363-1.555 1.875-0.661 0.533-1.448 0.915-2.363 1.192-0.96 0.296-1.957 0.445-3.045 0.445zM57.861 43.219c-7.003 5.173-17.179 7.917-25.925 7.917-12.261 0-23.307-4.533-31.653-12.069-0.659-0.595-0.064-1.405 0.725-0.936 9.024 5.235 20.157 8.408 31.672 8.408 7.771 0 16.304-1.619 24.16-4.939 1.171-0.533 2.171 0.765 1.021 1.619zM60.779 39.896c-0.896-1.147-5.92-0.552-8.197-0.275-0.68 0.085-0.787-0.512-0.168-0.96 4-2.808 10.579-2 11.344-1.064 0.765 0.96-0.213 7.536-3.96 10.685-0.573 0.491-1.128 0.235-0.872-0.403 0.853-2.107 2.747-6.853 1.853-7.984z"></path>
</svg>
