<!-- Generated by IcoMoon.io -->
<svg version="1.1" xmlns="http://www.w3.org/2000/svg" width="64" height="64" viewBox="0 0 64 64">
<title>amazon</title>
<path fill="#f90" d="M0.12 48.053c0.192-0.309 0.499-0.331 0.928-0.059 9.696 5.627 20.251 8.443 31.653 8.443 7.605 0 15.115-1.421 22.525-4.253l0.84-0.373c0.368-0.16 0.624-0.267 0.781-0.347 0.603-0.235 1.040-0.123 1.4 0.347 0.32 0.464 0.24 0.896-0.32 1.28-0.683 0.507-1.6 1.093-2.683 1.744-3.317 1.981-7.040 3.509-11.16 4.603-4.080 1.083-8.12 1.627-12.043 1.627-6.040 0-11.76-1.056-17.16-3.165-5.387-2.117-10.187-5.093-14.48-8.933-0.267-0.197-0.4-0.4-0.4-0.587 0-0.125 0.053-0.24 0.133-0.347zM17.627 31.472c0-2.68 0.659-4.968 1.981-6.872 1.32-1.893 3.12-3.333 5.44-4.307 2.123-0.893 4.683-1.533 7.765-1.92 1.040-0.123 2.755-0.275 5.12-0.464v-0.987c0-2.48-0.28-4.155-0.8-5-0.805-1.147-2.080-1.733-3.84-1.733h-0.485c-1.28 0.123-2.389 0.523-3.323 1.227-0.933 0.72-1.533 1.68-1.8 2.923-0.16 0.8-0.549 1.24-1.16 1.36l-6.72-0.84c-0.661-0.16-0.992-0.48-0.992-1.040 0-0.123 0.019-0.24 0.059-0.4 0.659-3.44 2.28-6 4.853-7.68 2.603-1.643 5.6-2.6 9.040-2.8h1.44c4.4 0 7.885 1.157 10.368 3.44 0.36 0.4 0.72 0.8 1.080 1.28 0.32 0.44 0.597 0.837 0.755 1.2 0.2 0.357 0.4 0.88 0.52 1.52 0.16 0.677 0.28 1.12 0.36 1.36 0.080 0.277 0.165 0.8 0.203 1.64 0.027 0.835 0.053 1.315 0.053 1.475v14.080c0 1.003 0.16 1.92 0.44 2.763 0.28 0.835 0.56 1.44 0.84 1.797l1.36 1.797c0.24 0.363 0.363 0.683 0.363 0.96 0 0.32-0.16 0.603-0.48 0.837-3.2 2.8-4.96 4.32-5.235 4.56-0.44 0.36-1 0.4-1.68 0.12-0.52-0.443-1-0.885-1.403-1.323l-0.827-0.925c-0.16-0.197-0.443-0.56-0.845-1.12l-0.8-1.16c-2.16 2.363-4.275 3.84-6.4 4.44-1.317 0.4-2.915 0.605-4.88 0.605-2.96 0-5.44-0.915-7.36-2.757-1.92-1.84-2.88-4.44-2.88-7.84l-0.133-0.203zM27.635 30.304c0 1.509 0.373 2.72 1.133 3.637 0.76 0.907 1.8 1.365 3.080 1.365 0.12 0 0.283-0.019 0.52-0.053 0.24-0.043 0.357-0.061 0.443-0.061 1.637-0.427 2.88-1.475 3.797-3.141 0.44-0.747 0.76-1.547 0.96-2.427 0.24-0.853 0.32-1.573 0.36-2.133 0.040-0.52 0.040-1.44 0.040-2.68v-1.44c-2.24 0-3.957 0.16-5.12 0.48-3.4 0.96-5.12 3.12-5.12 6.48l-0.093-0.053zM52.067 49.043c0.080-0.16 0.2-0.293 0.352-0.453 0.965-0.648 1.904-1.093 2.8-1.333 1.467-0.355 2.907-0.592 4.299-0.64 0.373-0.032 0.747 0 1.093 0.080 1.733 0.16 2.8 0.448 3.125 0.88 0.168 0.24 0.24 0.608 0.24 1.040v0.4c0 1.36-0.373 2.96-1.107 4.8-0.741 1.84-1.771 3.328-3.083 4.48-0.195 0.16-0.373 0.24-0.525 0.24-0.080 0-0.16 0-0.24-0.032-0.24-0.117-0.285-0.32-0.171-0.64 1.44-3.36 2.149-5.715 2.149-7.040 0-0.4-0.080-0.72-0.232-0.917-0.387-0.443-1.467-0.685-3.264-0.685-0.648 0-1.421 0.043-2.32 0.123-0.968 0.12-1.867 0.24-2.667 0.36-0.24 0-0.395-0.037-0.48-0.117-0.080-0.080-0.096-0.125-0.053-0.205 0-0.045 0.016-0.080 0.053-0.168v-0.16z"></path>
</svg>
