<!-- Generated by IcoMoon.io -->
<svg version="1.1" xmlns="http://www.w3.org/2000/svg" width="64" height="64" viewBox="0 0 64 64">
<title>android</title>
<path fill="#a4c639" d="M59.056 24.605c0-2.173-1.755-3.941-3.936-3.941s-3.947 1.76-3.947 3.947v16.507c0 2.16 1.768 3.947 3.955 3.947 2.171 0 3.936-1.787 3.936-3.947v-16.533h-0.027zM14.381 21.419l0.011 25.6c0 2.36 1.877 4.24 4.195 4.24h2.835v8.747c0 2.187 1.76 3.952 3.92 3.952s3.912-1.76 3.947-3.915v-8.747h5.315v8.747c0 2.195 1.76 3.955 3.92 3.955 2.195 0 3.952-1.76 3.952-3.973v-8.747h2.875c2.32 0 4.195-1.893 4.195-4.208v-25.68l-35.171 0.029zM40.109 13.605c-0.827 0-1.493-0.667-1.493-1.493 0-0.813 0.667-1.488 1.493-1.493 0.827 0 1.493 0.68 1.493 1.493 0 0.827-0.667 1.493-1.493 1.493zM23.949 13.605c-0.827 0-1.493-0.667-1.493-1.493 0-0.819 0.667-1.488 1.493-1.488s1.493 0.68 1.493 1.52-0.672 1.512-1.52 1.512zM40.696 5.923l2.744-5.043c0.16-0.28 0.037-0.603-0.203-0.76-0.277-0.12-0.597-0.040-0.757 0.24l-2.8 5.067c-2.315-1.080-4.949-1.68-7.707-1.68s-5.381 0.573-7.712 1.608l-2.757-5.075c-0.141-0.261-0.48-0.36-0.741-0.213-0.267 0.12-0.363 0.48-0.213 0.72l2.747 5c-5.413 2.792-9.067 8.107-9.067 14.213h35.541c0-6.107-3.648-11.421-9.056-14.213zM8.88 20.645c-2.179 0-3.947 1.773-3.947 3.955v16.512c0 2.187 1.771 3.947 3.957 3.947 2.171 0 3.939-1.76 3.939-3.947v-16.507c0-2.173-1.76-3.941-3.92-3.941z"></path>
</svg>
