<!-- Generated by IcoMoon.io -->
<svg version="1.1" xmlns="http://www.w3.org/2000/svg" width="64" height="64" viewBox="0 0 64 64">
<title>apple</title>
<path fill="#999" d="M18.875 62.8c-1.261-0.843-2.381-1.875-3.317-3.067-1.021-1.235-1.968-2.533-2.837-3.877-2.043-2.987-3.64-6.253-4.747-9.696-1.333-4.005-1.981-7.84-1.981-11.592 0-4.187 0.907-7.84 2.672-10.907 1.307-2.4 3.253-4.408 5.6-5.819 2.267-1.413 4.907-2.187 7.573-2.24 0.933 0 1.947 0.133 3.013 0.4 0.773 0.213 1.707 0.56 2.853 0.987 1.467 0.56 2.267 0.907 2.533 0.987 0.853 0.32 1.573 0.453 2.133 0.453 0.427 0 1.040-0.133 1.72-0.347 0.387-0.133 1.12-0.373 2.16-0.827 1.029-0.373 1.845-0.693 2.493-0.933 0.987-0.293 1.941-0.56 2.8-0.693 1.040-0.16 2.072-0.213 3.061-0.133 1.893 0.133 3.627 0.533 5.173 1.12 2.72 1.093 4.915 2.8 6.552 5.227-0.693 0.427-1.333 0.923-1.933 1.467-1.299 1.147-2.4 2.507-3.28 4.013-1.147 2.053-1.733 4.373-1.717 6.72 0.040 2.888 0.773 5.427 2.24 7.627 1.032 1.6 2.411 2.971 4.091 4.096 0.827 0.56 1.552 0.947 2.24 1.2-0.32 1-0.672 1.973-1.080 2.933-0.925 2.152-2.027 4.213-3.333 6.16-1.152 1.68-2.059 2.933-2.747 3.76-1.072 1.28-2.107 2.24-3.147 2.925-1.147 0.76-2.493 1.163-3.872 1.163-0.933 0.040-1.867-0.080-2.757-0.339-0.773-0.253-1.536-0.539-2.283-0.861-0.781-0.357-1.589-0.661-2.413-0.907-1.013-0.267-2.053-0.395-3.104-0.392-1.067 0-2.107 0.133-3.093 0.387-0.827 0.235-1.627 0.523-2.419 0.867-1.12 0.467-1.853 0.773-2.28 0.907-0.864 0.256-1.749 0.411-2.64 0.467-1.387 0-2.677-0.4-3.963-1.2zM37.152 13.573c-1.813 0.907-3.536 1.291-5.261 1.163-0.267-1.723 0-3.493 0.72-5.432 0.64-1.653 1.493-3.147 2.667-4.48 1.227-1.387 2.693-2.533 4.347-3.36 1.76-0.907 3.44-1.387 5.040-1.467 0.213 1.813 0 3.6-0.667 5.52-0.608 1.707-1.515 3.28-2.667 4.693-1.16 1.387-2.6 2.533-4.229 3.36z"></path>
</svg>
