<!-- Generated by IcoMoon.io -->
<svg version="1.1" xmlns="http://www.w3.org/2000/svg" width="64" height="64" viewBox="0 0 64 64">
<title>bitcoin</title>
<path fill="#f7931a" d="M63.035 39.744c-4.272 17.147-21.635 27.573-38.779 23.296-17.136-4.24-27.573-21.64-23.291-38.76 4.267-17.16 21.635-27.595 38.768-23.325 17.147 4.28 27.579 21.64 23.301 38.795v-0.005zM46.101 27.443c0.64-4.24-2.597-6.533-7.040-8.080l1.44-5.741-3.507-0.88-1.4 5.619c-0.92-0.232-1.88-0.445-2.837-0.667l1.403-5.672-3.52-0.88-1.44 5.773c-0.76-0.179-1.507-0.352-2.24-0.533l-4.84-1.2-0.933 3.752s2.6 0.6 2.547 0.629c1.427 0.363 1.68 1.296 1.64 2.043l-3.939 15.787c-0.2 0.443-0.64 1.083-1.637 0.837 0.040 0.053-2.56-0.64-2.56-0.64l-1.76 4.027 4.56 1.136 2.48 0.645-1.44 5.84 3.52 0.872 1.44-5.787c0.96 0.267 1.88 0.507 2.8 0.728l-1.36 5.744 3.52 0.88 1.453-5.84c5.973 1.139 10.48 0.685 12.373-4.731 1.52-4.365-0.080-6.88-3.245-8.523 2.277-0.515 4-2.027 4.48-5.147h0.027zM38.075 38.696c-1.077 4.373-8.419 2-10.8 1.413l1.92-7.733c2.389 0.613 10.019 1.787 8.88 6.32zM39.168 27.389c-0.987 3.973-7.099 1.96-9.080 1.467l1.744-7.040c1.984 0.48 8.365 1.397 7.333 5.557v0.016z"></path>
</svg>
