<!-- Generated by IcoMoon.io -->
<svg version="1.1" xmlns="http://www.w3.org/2000/svg" width="64" height="64" viewBox="0 0 64 64">
<title>bootstrap</title>
<path fill="#563d7c" d="M53.333 0h-42.667c-5.885 0.016-10.651 4.781-10.667 10.667v42.667c0 5.867 4.8 10.667 10.667 10.667h42.667c5.867 0 10.667-4.8 10.667-10.667v-42.667c0-5.867-4.8-10.667-10.667-10.667zM47.501 44.947c-0.533 1.285-1.379 2.419-2.461 3.291-1.12 0.907-2.539 1.653-4.285 2.187-1.744 0.541-3.819 0.813-6.221 0.813h-17.152v-37.333h18.139c3.355 0 6.043 0.755 8.053 2.293 2.027 1.547 3.035 3.851 3.035 6.96 0 1.88-0.459 3.493-1.381 4.827-0.917 1.325-2.24 2.363-3.947 3.083v0.123c2.277 0.48 4.040 1.56 5.2 3.24s1.755 3.803 1.755 6.365c0 1.435-0.277 2.8-0.8 4.075l0.067 0.072zM40.099 35.747c-1.093-1-2.629-1.488-4.613-1.488h-11.525v11.648h11.557c1.973 0 3.52-0.512 4.613-1.547 1.093-1.027 1.653-2.491 1.653-4.373-0.019-1.84-0.56-3.264-1.653-4.24h-0.045zM38.499 28.219c1.056-0.896 1.573-2.179 1.573-3.851 0-1.877-0.467-3.211-1.413-3.973-0.939-0.76-2.293-1.155-4.075-1.155h-10.667v10.301h10.667c1.555 0 2.88-0.453 3.904-1.323z"></path>
</svg>
