<!-- Generated by IcoMoon.io -->
<svg version="1.1" xmlns="http://www.w3.org/2000/svg" width="64" height="64" viewBox="0 0 64 64">
<title>codepen</title>
<path d="M64 21.819l-0.048-0.232-0.045-0.133c-0.027-0.064-0.048-0.133-0.080-0.2-0.008-0.048-0.040-0.091-0.053-0.133l-0.093-0.179-0.080-0.133-0.117-0.16-0.123-0.12-0.16-0.12-0.123-0.080-0.16-0.117-0.117-0.107-0.040-0.053-29.213-19.544c-0.925-0.619-2.123-0.619-3.045 0l-29.611 19.765-0.101 0.107-0.133 0.149-0.099 0.12-0.133 0.16c-0.053 0.045-0.080 0.080-0.080 0.123l-0.133 0.16-0.053 0.16c-0.053 0.027-0.053 0.107-0.080 0.187l-0.027 0.133c-0.051 0.083-0.051 0.163-0.051 0.243v19.992c0 0.117 0.008 0.24 0.027 0.36l0.027 0.123c0.013 0.080 0.027 0.16 0.053 0.229l0.040 0.133c0.027 0.072 0.043 0.141 0.072 0.2l0.059 0.133c0 0.027 0.040 0.107 0.080 0.16l0.080 0.107c0.040 0.027 0.080 0.107 0.12 0.16l0.080 0.107 0.107 0.107c0.027 0.035 0.027 0.080 0.080 0.080l0.16 0.112 0.107 0.080 0.027 0.037 29.253 19.547c0.437 0.32 1 0.435 1.52 0.435s1.040-0.16 1.52-0.48l29.755-19.749 0.139-0.155 0.088-0.12 0.107-0.16 0.080-0.133 0.080-0.187 0.043-0.139 0.080-0.205 0.040-0.12 0.080-0.213v-20c0-0.133 0-0.253-0.043-0.373l-0.037-0.12 0.117 0.008zM32.027 38.565l-9.733-6.507 9.733-6.512 9.733 6.507-9.733 6.507zM29.269 20.768l-11.928 7.973-9.635-6.443 21.563-14.373v12.848zM12.389 32.056l-6.885 4.613v-9.203l6.885 4.603zM17.341 35.389l11.928 7.973v12.853l-21.563-14.376 9.648-6.445v-0.011zM34.773 43.363l11.931-7.947 9.635 6.453-21.565 14.373v-12.853zM51.653 32.083l6.888-4.587v9.216l-6.888-4.613zM46.707 28.776l-11.928-7.976v-12.88l21.56 14.373-9.632 6.448z"></path>
</svg>
