<!-- Generated by IcoMoon.io -->
<svg version="1.1" xmlns="http://www.w3.org/2000/svg" width="64" height="64" viewBox="0 0 64 64">
<title>discord</title>
<path fill="#7289da" d="M53.925 0c3.749 0 6.773 3.032 6.952 6.6v57.4l-7.139-6.061-3.92-3.568-4.277-3.728 1.787 5.88h-37.435c-3.739 0-6.773-2.84-6.773-6.603v-43.307c0-3.568 3.040-6.605 6.787-6.605l44.019-0.008zM37.611 15.155h-0.080l-0.539 0.533c5.528 1.6 8.203 4.099 8.203 4.099-3.563-1.781-6.773-2.672-9.984-3.032-2.32-0.36-4.64-0.171-6.6 0h-0.533c-1.253 0-3.92 0.533-7.493 1.96-1.245 0.541-1.96 0.896-1.96 0.896s2.672-2.672 8.56-4.099l-0.36-0.36s-4.459-0.171-9.272 3.387c0 0-4.813 8.384-4.813 18.72 0 0 2.667 4.64 9.981 4.816 0 0 1.067-1.421 2.147-2.672-4.107-1.248-5.707-3.744-5.707-3.744s0.357 0.176 0.893 0.533h0.16c0.080 0 0.117 0.040 0.16 0.080v0.016c0.043 0.043 0.080 0.080 0.16 0.080 0.88 0.363 1.76 0.72 2.48 1.067 1.243 0.539 2.84 1.075 4.8 1.429 2.48 0.36 5.323 0.533 8.56 0 1.6-0.36 3.2-0.712 4.8-1.427 1.040-0.533 2.32-1.067 3.725-1.965 0 0-1.6 2.496-5.88 3.744 0.88 1.243 2.12 2.667 2.12 2.667 7.317-0.16 10.16-4.8 10.32-4.603 0-10.32-4.84-18.72-4.84-18.72-4.36-3.237-8.44-3.36-9.16-3.36l0.149-0.053zM38.059 26.923c1.875 0 3.387 1.6 3.387 3.56 0 1.973-1.52 3.573-3.387 3.573s-3.387-1.6-3.387-3.557c0.005-1.973 1.528-3.568 3.387-3.568zM25.944 26.923c1.867 0 3.376 1.6 3.376 3.56 0 1.973-1.52 3.573-3.387 3.573s-3.387-1.6-3.387-3.557c0-1.973 1.52-3.568 3.387-3.568z"></path>
</svg>
