<!-- Generated by IcoMoon.io -->
<svg version="1.1" xmlns="http://www.w3.org/2000/svg" width="64" height="64" viewBox="0 0 64 64">
<title>git</title>
<path fill="#f05032" d="M62.789 29.147l-27.944-27.941c-1.611-1.608-4.219-1.608-5.835 0l-5.789 5.8 7.36 7.36c1.72-0.573 3.677-0.187 5.037 1.176 1.376 1.373 1.755 3.355 1.168 5.067l7.088 7.093c1.72-0.595 3.699-0.208 5.067 1.16 1.923 1.92 1.923 5.024 0 6.944-1.917 1.917-5.016 1.917-6.933 0-1.437-1.443-1.797-3.565-1.077-5.323l-6.637-6.603v17.4c0.469 0.229 0.912 0.541 1.301 0.928 1.901 1.923 1.901 5.021 0 6.933-1.917 1.923-5.037 1.923-6.957 0-1.917-1.917-1.917-5.011 0-6.928 0.485-0.48 1.032-0.843 1.613-1.083v-17.571c-0.579-0.243-1.131-0.592-1.6-1.069-1.453-1.453-1.803-3.579-1.056-5.357l-7.232-7.267-19.163 19.149c-1.6 1.613-1.6 4.224 0 5.837l27.947 27.939c1.611 1.611 4.219 1.611 5.829 0l27.813-27.813c1.613-1.608 1.613-4.219 0-5.832z"></path>
</svg>
