<!-- Generated by IcoMoon.io -->
<svg version="1.1" xmlns="http://www.w3.org/2000/svg" width="64" height="64" viewBox="0 0 64 64">
<title>googlechrome</title>
<path fill="#4285f4" d="M43.237 23.173l17.907-4.477c1.804 3.886 2.856 8.435 2.856 13.229v0c0 17.595-14.483 32.075-32.085 32.075-0.805 0-1.613-0.029-2.419-0.091l13.080-22.259c0.949-1.003 1.747-2.141 2.349-3.389 0.88-1.819 1.394-3.955 1.394-6.212 0-2.349-0.557-4.569-1.547-6.533l0.038 0.083c-0.474-0.924-0.996-1.719-1.593-2.452l0.020 0.025zM34.597 46.040l-5.656 17.819c-16.307-1.605-28.941-15.485-28.941-31.92 0-6.36 1.891-12.579 5.435-17.861l12.891 22.339c0.48 1.437 2.984 6.883 8.179 8.872 2.661 1.019 5.443 1.283 8.093 0.752zM31.928 20.32c-5.349 0.051-10.341 4.117-11.416 9.365-0.14 0.687-0.221 1.477-0.221 2.286 0 3.308 1.345 6.303 3.519 8.465l0 0.001c3.237 3.163 8.373 4.208 12.624 2.472 3.755-1.536 6.587-5.139 7.176-9.149 0.725-4.949-2.101-10.219-6.653-12.344-1.454-0.692-3.16-1.096-4.96-1.096-0.024 0-0.049 0-0.073 0h0.004zM18.789 26.565l-12.765-13.331c5.905-8.057 15.332-13.231 25.967-13.235h0.001c12.16 0 23.317 6.912 28.731 17.8h-27.235c-4.829-0.333-8.768 1.387-11.373 3.875-1.405 1.349-2.531 2.977-3.29 4.796l-0.035 0.094z"></path>
</svg>
