<!-- Generated by IcoMoon.io -->
<svg version="1.1" xmlns="http://www.w3.org/2000/svg" width="64" height="64" viewBox="0 0 64 64">
<title>heroku</title>
<path fill="#430098" d="M54.96 0h-45.92c-3.203 0-5.76 2.56-5.76 5.76v52.483c0 3.195 2.557 5.757 5.76 5.757h45.92c3.2 0 5.757-2.563 5.757-5.757v-52.483c0.003-3.2-2.555-5.76-5.757-5.76zM57.52 58.243c0 1.437-1.123 2.56-2.56 2.56h-45.92c-1.44 0-2.56-1.123-2.56-2.56v-52.483c0-1.44 1.12-2.563 2.56-2.563h45.92c1.437 0 2.56 1.123 2.56 2.563v52.483zM17.68 54.397l7.2-6.397-7.2-6.4v12.797zM43.6 28.48c-1.277-1.28-3.677-2.88-7.677-2.88-4.323 0-8.803 1.123-12 2.24v-18.24h-6.4v27.68l4.48-2.080s7.36-3.36 13.76-3.36c3.2 0 4 1.76 4 3.36v19.2h6.4v-19.2c0.157-0.477 0.157-4.003-2.563-6.72zM35.12 20h6.4c2.88-3.36 4.32-6.723 4.8-10.4h-6.397c-0.643 3.677-2.243 7.040-4.803 10.4z"></path>
</svg>
