<!-- Generated by IcoMoon.io -->
<svg version="1.1" xmlns="http://www.w3.org/2000/svg" width="64" height="64" viewBox="0 0 64 64">
<title>icloud</title>
<path fill="#3693f3" d="M53.368 28.603l0.003-0.075c0-0.001 0-0.003 0-0.005 0-9.346-7.577-16.923-16.923-16.923-6.389 0-11.95 3.54-14.831 8.766l-0.044 0.087c-1.223-0.652-2.674-1.035-4.215-1.035-4.843 0-8.803 3.782-9.088 8.553l-0.001 0.025c-4.863 1.813-8.265 6.415-8.269 11.813v0.001c0.002 6.949 5.635 12.582 12.584 12.584h39.486c6.576-0.019 11.9-5.355 11.9-11.933 0-6.121-4.609-11.166-10.545-11.854l-0.055-0.005z"></path>
</svg>
