<!-- Generated by IcoMoon.io -->
<svg version="1.1" xmlns="http://www.w3.org/2000/svg" width="64" height="64" viewBox="0 0 64 64">
<title>imdb</title>
<path fill="#e6b91e" d="M38.16 25.568v0.013c-0.205-0.128-0.605-0.187-1.12-0.187v12.84c0.72 0 1.173-0.16 1.333-0.44 0.165-0.277 0.253-1.080 0.253-2.36v-7.643c0-0.88-0.011-1.44-0.088-1.68-0.059-0.256-0.179-0.435-0.373-0.544zM59.776 0h-55.456c-2.341 0.16-4.16 1.984-4.32 4.256v55.424c0.16 2.331 1.899 4.112 4.147 4.312 0.040 0.008 0.080 0.008 0.12 0.008h55.587c2.347-0.235 4.133-2.203 4.147-4.56v-54.88c0-2.373-1.853-4.373-4.224-4.56zM12.779 41.669h-5.080v-19.643h5.080v19.643zM30.219 41.664h-4.432v-13.253l-1.787 13.251h-3.168l-1.861-12.96-0.019 12.96h-4.445v-19.635h6.581c0.221 1.395 0.427 2.795 0.613 4.197l0.72 4.987 1.179-9.184h6.621v19.637zM43.491 35.851c0 1.747-0.117 2.917-0.277 3.52-0.165 0.587-0.453 1.067-0.869 1.387-0.4 0.347-0.907 0.581-1.52 0.709-0.595 0.12-1.52 0.2-2.72 0.2l-0.011-0.005h-6.147v-19.635h3.803c2.437 0 3.867 0.125 4.72 0.341 0.867 0.24 1.533 0.6 1.987 1.12 0.44 0.48 0.728 1.077 0.835 1.72 0.133 0.627 0.203 1.88 0.203 3.739v6.901zM56.675 37.117c0 1.2-0.12 2.037-0.24 2.64-0.16 0.597-0.52 1.077-1.080 1.515-0.603 0.443-1.28 0.64-2.080 0.64-0.587 0-1.333-0.16-1.813-0.363-0.507-0.251-0.955-0.632-1.373-1.139l-0.309 1.253h-4.579v-19.637l-0.053-0.008h4.8v6.4c0.4-0.467 0.84-0.827 1.36-1.067 0.523-0.221 1.243-0.339 1.84-0.339 0.603-0.008 1.2 0.096 1.76 0.307 0.453 0.187 0.853 0.493 1.163 0.88 0.24 0.333 0.4 0.72 0.48 1.12 0.080 0.368 0.117 1.147 0.117 2.32v5.477zM50.88 29.88c-0.32 0-0.517 0.107-0.6 0.32-0.080 0.213-0.16 0.773-0.16 1.664v5.189c0 0.864 0.080 1.421 0.16 1.661 0.107 0.229 0.347 0.373 0.603 0.357 0.32 0 0.725-0.125 0.8-0.373 0.080-0.259 0.123-0.853 0.123-1.797l0.080-0.005v-5.040c0-0.808-0.040-1.355-0.16-1.608-0.117-0.267-0.52-0.373-0.84-0.373z"></path>
</svg>
