<!-- Generated by IcoMoon.io -->
<svg version="1.1" xmlns="http://www.w3.org/2000/svg" width="64" height="64" viewBox="0 0 64 64">
<title>instagram</title>
<path fill="#e4405f" d="M32 0c-8.693 0-9.779 0.040-13.192 0.192-3.408 0.16-5.728 0.696-7.768 1.488-2.104 0.816-3.891 1.912-5.669 3.691s-2.877 3.563-3.691 5.669c-0.792 2.040-1.331 4.36-1.488 7.768-0.16 3.413-0.192 4.499-0.192 13.192s0.040 9.779 0.192 13.192c0.16 3.405 0.696 5.728 1.488 7.768 0.816 2.101 1.912 3.891 3.691 5.669 1.779 1.776 3.563 2.877 5.669 3.691 2.043 0.789 4.363 1.331 7.768 1.488 3.413 0.16 4.499 0.192 13.192 0.192s9.779-0.040 13.192-0.192c3.405-0.16 5.728-0.699 7.768-1.488 2.101-0.816 3.891-1.915 5.669-3.691 1.776-1.779 2.877-3.56 3.691-5.669 0.789-2.040 1.331-4.363 1.488-7.768 0.16-3.413 0.192-4.499 0.192-13.192s-0.040-9.779-0.192-13.192c-0.16-3.405-0.699-5.731-1.488-7.768-0.816-2.104-1.915-3.891-3.691-5.669-1.779-1.779-3.56-2.877-5.669-3.691-2.040-0.792-4.363-1.331-7.768-1.488-3.413-0.16-4.499-0.192-13.192-0.192zM32 5.76c8.541 0 9.56 0.043 12.933 0.189 3.12 0.147 4.813 0.664 5.939 1.107 1.499 0.579 2.56 1.272 3.685 2.389 1.117 1.12 1.811 2.184 2.389 3.683 0.437 1.125 0.96 2.819 1.101 5.939 0.152 3.376 0.187 4.389 0.187 12.933s-0.040 9.56-0.197 12.933c-0.163 3.12-0.683 4.813-1.123 5.939-0.597 1.499-1.277 2.56-2.397 3.685-1.117 1.117-2.197 1.811-3.68 2.389-1.12 0.437-2.84 0.96-5.96 1.101-3.397 0.152-4.397 0.187-12.957 0.187-8.563 0-9.563-0.040-12.957-0.197-3.123-0.163-4.843-0.683-5.963-1.123-1.517-0.597-2.56-1.277-3.677-2.397-1.123-1.117-1.84-2.197-2.4-3.68-0.44-1.12-0.957-2.84-1.12-5.96-0.12-3.36-0.163-4.397-0.163-12.917 0-8.523 0.043-9.563 0.163-12.963 0.163-3.12 0.68-4.837 1.12-5.957 0.56-1.52 1.277-2.56 2.4-3.683 1.117-1.117 2.16-1.837 3.677-2.395 1.12-0.443 2.803-0.963 5.923-1.123 3.4-0.12 4.4-0.16 12.957-0.16l0.12 0.080zM32 15.568c-9.080 0-16.432 7.36-16.432 16.432 0 9.080 7.36 16.432 16.432 16.432 9.080 0 16.432-7.36 16.432-16.432 0-9.080-7.36-16.432-16.432-16.432zM32 42.667c-5.893 0-10.667-4.773-10.667-10.667s4.773-10.667 10.667-10.667 10.667 4.773 10.667 10.667-4.773 10.667-10.667 10.667zM52.923 14.92c0 2.12-1.723 3.84-3.84 3.84-2.12 0-3.84-1.723-3.84-3.84s1.723-3.837 3.84-3.837c2.115-0.003 3.84 1.72 3.84 3.837z"></path>
</svg>
