<!-- Generated by IcoMoon.io -->
<svg version="1.1" xmlns="http://www.w3.org/2000/svg" width="64" height="64" viewBox="0 0 64 64">
<title>internetexplorer</title>
<path fill="#0076d6" d="M60.8 19.683c3-7.2 3.2-13.2-0.4-16.8-4-3.997-13.6-2.8-23.797 2h-1.2c-7.2 0-14.197 2.603-19.397 7.2-4.4 4-7.6 9.2-9 15 1-1.2 6.6-7.8 13-11.4 0.2 0 1.8-1 1.8-1-0.2 0-3.2 3-3.8 3.6-14 14.4-22.197 36.197-15.797 42.595 4.197 4.2 11.797 3.2 20.597-1.6 3.8 1.8 8 2.6 12.597 2.6 6 0 11.6-1.6 16.4-4.8 4.997-3.2 8.597-8.197 10.8-13.997h-15.6c-2 3.8-6.6 6.4-11.4 6.4-6.8 0-12.4-5.6-12.597-12v-0.6h40.795v-0.6c0-1 0.2-2.2 0.2-2.997 0-4.8-1.2-9.4-3.2-13.6zM6.605 59.68c-3.2-3.2-2.197-9.397 1.6-16.797 1.8 5 4.8 9.4 8.6 12.6 1.2 1 2.6 2 4 2.8-6.4 3.397-11.6 4-14.2 1.397zM47.603 29.285h-24.397v-0.2c0.4-6.2 6.197-11.6 12.997-11.6 6.4 0 11.6 5 12 11.6v0.2zM59.8 18.085c-1.2-2-2.8-4-4.6-5.6-2.698-2.514-5.885-4.545-9.397-5.93l-0.203-0.070c6.4-2.997 11.8-3.397 14.6-0.597 2.2 2.6 2 6.997-0.4 12.197 0 0.2 0 0.2 0 0 0 0.2 0 0.2 0 0z"></path>
</svg>
