<!-- Generated by IcoMoon.io -->
<svg version="1.1" xmlns="http://www.w3.org/2000/svg" width="64" height="64" viewBox="0 0 64 64">
<title>javascript</title>
<path fill="#f7df1e" d="M0 0h64v64h-64v-64zM58.757 48.736c-0.467-2.92-2.368-5.373-8.008-7.661-1.963-0.92-4.144-1.56-4.792-3.040-0.243-0.88-0.28-1.36-0.123-1.88 0.4-1.723 2.44-2.24 4.040-1.76 1.040 0.32 2 1.12 2.603 2.4 2.757-1.803 2.757-1.803 4.68-3-0.72-1.12-1.077-1.603-1.563-2.080-1.68-1.88-3.917-2.84-7.557-2.757l-1.88 0.237c-1.803 0.44-3.52 1.4-4.56 2.68-3.040 3.443-2.163 9.443 1.517 11.923 3.64 2.72 8.963 3.317 9.643 5.88 0.64 3.12-2.32 4.12-5.243 3.76-2.163-0.48-3.36-1.563-4.68-3.563l-4.88 2.803c0.56 1.28 1.2 1.837 2.16 2.957 4.64 4.683 16.24 4.443 18.323-2.677 0.077-0.24 0.64-1.88 0.197-4.4l0.123 0.179zM34.803 29.416h-5.995c0 5.168-0.024 10.304-0.024 15.48 0 3.285 0.168 6.301-0.368 7.229-0.88 1.837-3.147 1.603-4.176 1.28-1.056-0.523-1.592-1.243-2.213-2.28-0.168-0.28-0.293-0.523-0.339-0.523l-4.867 3c0.813 1.68 2 3.125 3.531 4.045 2.28 1.36 5.344 1.8 8.552 1.080 2.088-0.603 3.888-1.843 4.829-3.763 1.36-2.48 1.072-5.52 1.059-8.923 0.032-5.477 0-10.957 0-16.477l0.011-0.149z"></path>
</svg>
