<!-- Generated by IcoMoon.io -->
<svg version="1.1" xmlns="http://www.w3.org/2000/svg" width="64" height="64" viewBox="0 0 64 64">
<title>jekyll</title>
<path fill="#c00" d="M21.528 64c-0.928 0-1.837-0.168-2.72-0.504-3.667-1.4-5.611-5.387-4.603-9.072l-0.040-0.016 0.24-0.603 18.659-48.445c0.28-0.72 0.152-2.427 0.016-3.379-0.043-0.227-0.043-0.429 0.021-0.64l0.021-0.061 0.016-0.040v-0.019l0.024-0.051c0.288-0.779 1.2-1.171 2.688-1.171 1.795 0 4.272 0.56 6.803 1.528 2.125 0.819 4.061 1.837 5.421 2.867 1.605 1.2 2.245 2.277 1.885 3.2l-0.083 0.12-0.043 0.040c-0.12 0.163-0.24 0.32-0.4 0.44-0.837 0.723-2.037 1.96-2.24 2.52l-18.835 49.123-0.043-0.016c-1.317 2.528-3.885 4.152-6.781 4.163h-0.016l0.008 0.016zM15.696 54.085l-0.053 0.133c-1.192 3.203 0.432 6.819 3.637 8.048 0.723 0.28 1.469 0.411 2.232 0.411 2.589 0 4.88-1.56 5.835-4l0.072-0.163 18.557-48.24c0.389-1.040 2.24-2.72 2.611-3.040l0.043-0.043c0.032-0.040 0.053-0.040 0.053-0.080 0-0.16-0.163-0.72-1.485-1.72-1.277-0.96-3.077-1.92-5.077-2.68-2.315-0.875-4.715-1.437-6.315-1.437-1.040 0-1.397 0.219-1.453 0.336v0.107c0.043 0.277 0.392 2.76-0.091 4.040l-18.565 48.328zM39.563 23.4s-2.571 2.957-4.915 4.024c-2.347 1.061-4.077 0.781-6.187 2.016-2.104 1.229-3.168 2.941-3.168 2.941l-8.573 22.299c-0.928 2.517 0.448 5.467 3 6.453 2.56 0.984 5.44-0.32 6.432-2.816l13.411-34.917zM26.413 50.027c0.277-0.109 0.6 0 0.709 0.28 0.112 0.277 0 0.592-0.28 0.704-0.277 0.115-0.6 0-0.709-0.277-0.112-0.259 0-0.576 0.28-0.707zM23.709 45.221c-0.405 0.181-0.891 0-1.059-0.413-0.187-0.405 0-0.891 0.411-1.059 0.411-0.187 0.893 0 1.061 0.408 0.197 0.4 0.021 0.837-0.413 1.040v0.024zM24.472 42.299c-0.328-0.768 0-1.661 0.765-2.021 0.76-0.331 1.64 0 2 0.76 0.323 0.771 0 1.664-0.76 2.019-0.8 0.336-1.677 0-2.040-0.76l0.035 0.003zM30.941 36.277c0.408-0.197 0.893 0 1.061 0.4 0.187 0.411 0 0.896-0.408 1.064-0.413 0.187-0.899 0-1.064-0.413-0.197-0.405 0-0.891 0.411-1.059v0.008zM27.493 32.6c0.28-0.112 0.603 0 0.709 0.28 0.115 0.277 0 0.603-0.277 0.709-0.277 0.112-0.603 0-0.707-0.277-0.117-0.283 0.016-0.605 0.275-0.712zM36.483 3.040c0.267-0.696 2.648-0.432 5.32 0.603 2.664 1.024 4.611 2.424 4.347 3.12-0.277 0.704-2.659 0.437-5.323-0.589-2.68-1.027-4.624-2.427-4.352-3.136h0.008z"></path>
</svg>
