<!-- Generated by IcoMoon.io -->
<svg version="1.1" xmlns="http://www.w3.org/2000/svg" width="64" height="64" viewBox="0 0 64 64">
<title>last-dot-fm</title>
<path fill="#d51007" d="M28.264 45.896l-2.349-6.381s-3.821 4.256-9.544 4.256c-5.067 0-8.664-4.405-8.664-11.456 0-9.027 4.555-12.256 9.035-12.256 6.448 0 8.491 4.181 10.253 9.541l2.323 7.336c2.323 7.125 6.728 12.848 19.427 12.848 9.093 0 15.259-2.787 15.259-10.136 0-5.939-3.403-9.021-9.693-10.493l-4.685-1.024c-3.245-0.731-4.205-2.056-4.205-4.259 0-2.496 1.963-3.965 5.205-3.965 3.528 0 5.408 1.32 5.725 4.477l7.331-0.88c-0.6-6.611-5.165-9.317-12.653-9.317-6.611 0-13.059 2.496-13.059 10.491 0 4.995 2.405 8.155 8.493 9.613l4.965 1.181c3.725 0.88 4.968 2.443 4.968 4.568 0 2.723-2.645 3.843-7.651 3.843-7.411 0-10.496-3.885-12.259-9.251l-2.403-7.333c-3.083-9.531-8.011-13.056-17.784-13.056-10.573-0.037-16.299 6.768-16.299 18.384 0 11.144 5.725 17.187 16.008 17.187 8.288 0 12.256-3.885 12.256-3.885v-0.032z"></path>
</svg>
