<!-- Generated by IcoMoon.io -->
<svg version="1.1" xmlns="http://www.w3.org/2000/svg" width="64" height="64" viewBox="0 0 64 64">
<title>line</title>
<path fill="#00c300" d="M51.64 26.301c0.931 0 1.68 0.76 1.68 1.683 0 0.92-0.749 1.68-1.68 1.68h-4.68v3h4.68c0.931 0 1.68 0.755 1.68 1.68 0 0.917-0.749 1.677-1.68 1.677h-6.363c-0.92 0-1.672-0.76-1.672-1.677v-12.723c0-0.92 0.752-1.68 1.68-1.68h6.363c0.923 0 1.672 0.76 1.672 1.68 0 0.931-0.749 1.68-1.68 1.68h-4.68v3h4.68zM41.36 34.344c0 0.72-0.464 1.36-1.152 1.589-0.171 0.056-0.355 0.083-0.531 0.083-0.563 0-1.043-0.24-1.36-0.667l-6.515-8.845v7.84c0 0.917-0.744 1.677-1.683 1.677-0.923 0-1.669-0.76-1.669-1.677v-12.723c0-0.72 0.461-1.36 1.147-1.587 0.16-0.061 0.363-0.088 0.517-0.088 0.52 0 1 0.277 1.32 0.677l6.565 8.88v-7.883c0-0.92 0.752-1.68 1.68-1.68 0.92 0 1.68 0.76 1.68 1.68v12.723zM26.051 34.344c0 0.917-0.752 1.677-1.683 1.677-0.92 0-1.672-0.76-1.672-1.677v-12.723c0-0.92 0.752-1.68 1.68-1.68 0.923 0 1.675 0.76 1.675 1.68v12.723zM19.475 36.021h-6.363c-0.92 0-1.68-0.76-1.68-1.677v-12.723c0-0.92 0.76-1.68 1.68-1.68 0.928 0 1.68 0.76 1.68 1.68v11.043h4.683c0.928 0 1.677 0.755 1.677 1.68 0 0.917-0.752 1.677-1.677 1.677zM64 27.504c0-14.323-14.36-25.979-32-25.979s-32 11.656-32 25.979c0 12.829 11.387 23.579 26.76 25.621 1.043 0.219 2.461 0.688 2.821 1.573 0.32 0.803 0.211 2.043 0.101 2.88l-0.437 2.72c-0.12 0.803-0.64 3.163 2.797 1.72 3.443-1.437 18.443-10.875 25.163-18.6 4.597-5.037 6.795-10.197 6.795-15.915z"></path>
</svg>
