<!-- Generated by IcoMoon.io -->
<svg version="1.1" xmlns="http://www.w3.org/2000/svg" width="64" height="64" viewBox="0 0 64 64">
<title>linkedin</title>
<path fill="#0077b5" d="M54.525 54.539h-9.477v-14.851c0-3.541-0.072-8.099-4.939-8.099-4.941 0-5.696 3.853-5.696 7.837v15.112h-9.477v-30.539h9.104v4.163h0.123c1.272-2.4 4.365-4.933 8.987-4.933 9.603 0 11.379 6.32 11.379 14.547v16.763zM14.232 19.821c-3.051 0-5.501-2.469-5.501-5.507 0-3.035 2.453-5.501 5.501-5.501 3.040 0 5.504 2.467 5.504 5.501 0 3.037-2.467 5.507-5.504 5.507zM18.984 54.539h-9.504v-30.539h9.504v30.539zM59.267 0h-54.544c-2.611 0-4.723 2.064-4.723 4.611v54.779c0 2.549 2.112 4.611 4.723 4.611h54.536c2.608 0 4.741-2.061 4.741-4.611v-54.779c0-2.547-2.133-4.611-4.741-4.611h0.008z"></path>
</svg>
