<!-- Generated by IcoMoon.io -->
<svg version="1.1" xmlns="http://www.w3.org/2000/svg" width="64" height="64" viewBox="0 0 64 64">
<title>markdown</title>
<path d="M59.384 51.693h-54.768c-2.548 0-4.613-2.065-4.613-4.613v0-30.16c0-2.548 2.065-4.613 4.613-4.613h54.768c2.548 0 4.613 2.065 4.613 4.613v30.155c0 0.001 0 0.002 0 0.003 0 2.548-2.065 4.613-4.613 4.613v0zM15.384 42.461v-12l6.155 7.693 6.152-7.693v12h6.155v-20.92h-6.155l-6.152 7.693-6.155-7.693h-6.155v20.925zM56.616 32h-6.155v-10.461h-6.152v10.461h-6.155l9.229 10.771z"></path>
</svg>
