<!-- Generated by IcoMoon.io -->
<svg version="1.1" xmlns="http://www.w3.org/2000/svg" width="64" height="64" viewBox="0 0 64 64">
<title>medium</title>
<path d="M0 0v64h64v-64h-64zM53.168 15.163l-3.432 3.291c-0.241 0.185-0.395 0.473-0.395 0.798 0 0.059 0.005 0.117 0.015 0.173l-0.001-0.006v24.179c-0.009 0.050-0.014 0.107-0.014 0.165 0 0.324 0.154 0.612 0.393 0.796l0.002 0.002 3.352 3.291v0.723h-16.859v-0.72l3.472-3.373c0.341-0.341 0.341-0.44 0.341-0.96v-19.547l-9.653 24.52h-1.307l-11.243-24.52v16.435c-0.013 0.092-0.021 0.197-0.021 0.305 0 0.615 0.245 1.173 0.642 1.581l-0-0.001 4.517 5.477v0.723h-12.805v-0.72l4.52-5.48c0.379-0.393 0.612-0.928 0.612-1.518 0-0.13-0.011-0.257-0.033-0.381l0.002 0.013v-19.003c0.005-0.051 0.009-0.11 0.009-0.169 0-0.49-0.212-0.93-0.549-1.235l-0.001-0.001-4.016-4.837v-0.72h12.464l9.635 21.128 8.469-21.131h11.883v0.723z"></path>
</svg>
