<!-- Generated by IcoMoon.io -->
<svg version="1.1" xmlns="http://www.w3.org/2000/svg" width="64" height="64" viewBox="0 0 64 64">
<title>microsoftedge</title>
<path fill="#0078d7" d="M61.755 38h-40.899c0 1.541 0.229 2.941 0.699 4.2 0.501 1.24 1.149 2.349 1.981 3.32 0.827 0.971 1.8 1.8 2.939 2.501 1.101 0.699 2.301 1.28 3.581 1.728 1.269 0.461 2.6 0.8 3.947 1.021 1.264 0.211 2.721 0.331 4.206 0.331 1.633 0 3.233-0.146 4.786-0.425l-0.163 0.024c1.504-0.28 2.963-0.651 4.403-1.12 1.44-0.472 2.829-1.032 4.221-1.672 1.4-0.64 2.819-1.339 4.28-2.12v13.56c-1.632 0.8-3.232 1.472-4.832 2.051-1.6 0.56-3.2 1.051-4.827 1.44-1.632 0.4-3.28 0.701-4.973 0.88-1.565 0.178-3.38 0.279-5.218 0.28h-0.001c-2.4 0-4.72-0.28-6.949-0.829-2.385-0.589-4.476-1.406-6.425-2.453l0.145 0.071c-2.048-1.096-3.814-2.351-5.402-3.798l0.021 0.019c-3.211-2.911-5.616-6.655-6.877-10.892l-0.043-0.169c-0.603-2.043-0.95-4.391-0.95-6.819 0-0.049 0-0.099 0-0.148l-0 0.008c0-2.629 0.36-5.131 1.080-7.52 0.731-2.4 1.76-4.579 3.12-6.579 1.4-2.052 3.037-3.81 4.901-5.293l0.048-0.037c1.893-1.509 4.065-2.787 6.406-3.737l0.175-0.063c-1.313 1.313-2.364 2.887-3.068 4.637l-0.033 0.093c-0.684 1.596-1.187 3.447-1.42 5.382l-0.010 0.098h22.779c0-2.301-0.229-4.301-0.699-6.021s-1.221-3.149-2.269-4.28c-1.040-1.139-2.381-2-4.032-2.56-1.648-0.571-3.64-0.859-5.968-0.859-2.752 0-5.501 0.4-8.251 1.229-2.749 0.8-5.36 1.949-7.84 3.4-2.48 1.469-4.76 3.2-6.84 5.179-2.080 2-3.829 4.152-5.251 6.48 0.333-2.893 0.941-5.522 1.81-8.030l-0.079 0.262c0.829-2.469 1.928-4.771 3.251-6.904 1.373-2.17 2.905-4.051 4.633-5.732l0.007-0.007c1.768-1.72 3.728-3.2 5.899-4.4 2.171-1.197 4.469-2.168 6.971-2.821 2.39-0.573 5.136-0.903 7.958-0.907h0.002c1.64 0 3.269 0.149 4.899 0.44 1.632 0.301 3.221 0.701 4.773 1.221 3.077 1.059 5.827 2.539 8.248 4.419 2.369 1.85 4.387 4.006 6.036 6.433l0.063 0.098c1.653 2.469 2.901 5.2 3.76 8.168 0.861 2.971 1.301 6.061 1.301 9.272v7.949z"></path>
</svg>
