<!-- Generated by IcoMoon.io -->
<svg version="1.1" xmlns="http://www.w3.org/2000/svg" width="64" height="64" viewBox="0 0 64 64">
<title>microsoftexcel</title>
<path fill="#217346" d="M62.808 8.272h-21.44v3.968h6.32v6.277h-6.32v2h6.32v6.285h-6.32v2.056h6.32v5.944h-6.32v2.381h6.32v5.957h-6.32v2.381h6.32v5.992h-6.32v4.371h21.44c0.339-0.101 0.621-0.501 0.848-1.195 0.227-0.699 0.344-1.267 0.344-1.696v-43.997c0-0.341-0.117-0.547-0.344-0.619-0.227-0.069-0.509-0.107-0.848-0.107zM60.027 51.509h-10.285v-5.987h10.285v5.987zM60.027 43.141h-10.285v-5.96h10.285v5.96zM60.027 34.8h-10.285v-5.917h10.285v5.917zM60.027 26.8h-10.285v-6.277h10.285v6.277zM60.027 18.483h-10.285v-6.24h10.285v6.24zM0 7.283v49.603l37.76 6.531v-62.832l-37.76 6.699zM22.381 44.805c-0.144-0.389-0.821-2.043-2.021-4.968-1.197-2.923-1.92-4.624-2.131-5.109h-0.067l-4.051 9.64-5.413-0.365 6.421-12-5.88-12 5.52-0.291 3.648 9.389h0.072l4.12-9.816 5.704-0.36-6.792 12.987 7 13.248-6.131-0.355z"></path>
</svg>
