<!-- Generated by IcoMoon.io -->
<svg version="1.1" xmlns="http://www.w3.org/2000/svg" width="64" height="64" viewBox="0 0 64 64">
<title>microsoftword</title>
<path fill="#2b579a" d="M63.997 9.955v44.125c0 0.376-0.133 0.68-0.397 0.923-0.269 0.251-0.589 0.368-0.96 0.368h-22.824v-6.12h18.619v-2.787h-18.635v-3.411h18.619v-2.784h-18.605v-3.44h18.613v-2.752h-18.613v-3.448h18.613v-2.784h-18.613v-3.411h18.613v-2.781h-18.613v-3.48h18.613v-2.651h-18.613v-6.915h22.832c0.397 0 0.72 0.128 0.955 0.397 0.28 0.264 0.4 0.587 0.397 0.949zM36.4 1.709v60.592l-36.4-6.299v-47.824l36.4-6.469zM30.907 19.597l-4.557 0.28-2.923 18.093h-0.067c-0.144-0.856-0.68-3.853-1.64-8.979l-1.704-8.701-4.277 0.213-1.712 8.488c-1 4.944-1.557 7.821-1.704 8.629h-0.040l-2.6-16.667-3.92 0.208 4.2 21.021 4.357 0.28 1.64-8.181c0.96-4.8 1.52-7.589 1.64-8.352h0.12c0.163 0.813 0.683 3.664 1.64 8.56l1.64 8.421 4.72 0.28 5.28-23.6h-0.093z"></path>
</svg>
