<!-- Generated by IcoMoon.io -->
<svg version="1.1" xmlns="http://www.w3.org/2000/svg" width="64" height="64" viewBox="0 0 64 64">
<title>microsoftpowerpoint</title>
<path fill="#d24726" d="M62.624 10.667h-22.779v8.496c1.373-1.040 3.019-1.568 4.947-1.568v8.261h8.197c-0.040 2.317-0.84 4.272-2.403 5.848-1.557 1.579-3.515 2.389-5.835 2.443-1.8-0.053-3.44-0.595-4.877-1.64v5.677h17.917v2.787h-17.923v3.448h17.907v2.752h-17.917v6.24h22.781c0.923 0 1.36-0.485 1.36-1.432v-39.952c0-0.912-0.437-1.36-1.36-1.36h-0.016zM46.080 24.496v-8.331c2.32 0.053 4.267 0.859 5.835 2.427 1.563 1.568 2.376 3.536 2.416 5.904h-8.251zM22.016 24.635c-0.141-0.536-0.373-0.952-0.701-1.259-0.32-0.299-0.752-0.517-1.288-0.656-0.6-0.163-1.219-0.24-1.84-0.24l-1.92 0.037v7.997h0.069c0.696 0.043 1.427 0.043 2.2 0 0.76-0.040 1.48-0.24 2.157-0.6 0.835-0.6 1.333-1.4 1.496-2.437 0.16-1.043 0.104-2.043-0.171-2.963v0.12zM0 8.157v47.856l36.501 6.307v-60.64l-36.501 6.477zM27.235 29.723c-1 2.317-2.493 3.8-4.491 4.44-1.997 0.637-4.155 0.885-6.477 0.744v9.125l-4.803-0.557v-25.072l7.624-0.397c1.413-0.088 2.811 0.067 4.176 0.48 1.373 0.405 2.459 1.224 3.261 2.459 0.8 1.229 1.251 2.656 1.36 4.28 0.099 1.624-0.115 3.125-0.651 4.499z"></path>
</svg>
