<!-- Generated by IcoMoon.io -->
<svg version="1.1" xmlns="http://www.w3.org/2000/svg" width="64" height="64" viewBox="0 0 64 64">
<title>microsoftonedrive</title>
<path fill="#094ab2" d="M13.12 46.832c-1.331 0.813-2.824 1.219-4.48 1.219-2.453-0.077-4.48-0.923-6.099-2.536-1.619-1.603-2.459-3.645-2.541-6.085 0.043-2.299 0.776-4.251 2.213-5.845 1.44-1.603 3.267-2.528 5.488-2.8-0.080-0.475-0.112-0.979-0.112-1.509 0.080-3.040 1.12-5.557 3.12-7.517 2.011-1.96 4.533-3 7.579-3.080 1.917 0 3.637 0.44 5.157 1.36 1.28-2.043 2.923-3.72 4.963-4.957 2.077-1.24 4.4-1.88 6.957-1.923 3.443 0.080 6.36 1.163 8.837 3.24 2.48 2.080 4.043 4.76 4.683 8.080h-0.76c-1.24 0-2.317 0.16-3.28 0.517-1.277-1.36-2.76-2.395-4.437-3.117-1.64-0.723-3.44-1.040-5.363-1.040-1.76 0-3.44 0.277-5.040 0.88-1.6 0.6-3.040 1.437-4.32 2.557-1.12 0.96-2.040 2.043-2.8 3.28s-1.28 2.56-1.56 3.96c-0.96 0.2-1.88 0.477-2.723 0.837-1.36 0.637-2.517 1.517-3.437 2.68-0.88 1-1.563 2.163-2 3.48-0.44 1.323-0.683 2.683-0.683 4.12 0 1.6 0.243 3.083 0.803 4.443l-0.165-0.243zM58.048 36.84c4.203 1.043 6.181 3.52 5.933 7.416-0.245 3.901-2.515 6.099-6.813 6.589h-33.968c-5.611-0.739-8.368-3.64-8.272-8.701 0.091-5.080 2.944-7.877 8.56-8.36 0.733-5.44 3.509-8.8 8.32-10.080 4.816-1.317 8.912 0.163 12.299 4.483 1.163-0.96 2.629-1.363 4.4-1.243 1.781 0.12 3.291 0.483 4.525 1.163 1.6 0.837 2.88 2.040 3.723 3.563 0.835 1.515 1.277 3.24 1.277 5.117l0.016 0.053z"></path>
</svg>
