<!-- Generated by IcoMoon.io -->
<svg version="1.1" xmlns="http://www.w3.org/2000/svg" width="64" height="64" viewBox="0 0 64 64">
<title>mongodb</title>
<path fill="#47a248" d="M45.813 25.381c-3.368-14.827-11.312-19.699-12.165-21.563-0.939-1.315-1.955-3.819-1.955-3.819-0.005 0.051-0.011 0.083-0.013 0.131v0.035h-0.003c-0.005 0.040-0.008 0.067-0.011 0.104v0.040h-0.005c0 0.027-0.005 0.048-0.005 0.069v0.069h-0.008c-0.003 0.021-0.003 0.048-0.008 0.067v0.056h-0.005c0 0.019 0 0.040-0.005 0.056v0.053h-0.005c0 0.027-0.003 0.059-0.005 0.085v0.005c-0.008 0.045-0.016 0.091-0.024 0.133v0.021h-0.005c-0.003 0.011-0.008 0.021-0.008 0.032v0.045h-0.008v0.059h-0.013v0.048h-0.013v0.056h-0.011v0.051h-0.011v0.045h-0.016v0.037h-0.011v0.048h-0.011v0.037h-0.013v0.035h-0.008v0.040h-0.011c-0.003 0.003-0.003 0.008-0.003 0.011v0.027h-0.008c-0.003 0.005-0.003 0.011-0.003 0.016v0.016h-0.005c-0.003 0.008-0.005 0.021-0.005 0.027-0.008 0.019-0.019 0.037-0.027 0.056v0.005c-0.005 0.005-0.011 0.013-0.013 0.019v0.021h-0.011v0.021h-0.013v0.021h-0.008v0.027h-0.016v0.037h-0.011v0.011h-0.011v0.021h-0.011v0.029h-0.011v0.021h-0.016v0.029h-0.011v0.021h-0.013v0.021h-0.008v0.027h-0.013v0.021h-0.011v0.016h-0.011v0.021h-0.016v0.024h-0.011v0.016h-0.013v0.021h-0.011v0.029h-0.013v0.011h-0.008v0.021h-0.016v0.011h-0.011v0.027h-0.011v0.011h-0.011v0.021h-0.013v0.016h-0.008l-0.005 0.011v0.011h-0.005c-0.003 0.005-0.005 0.005-0.005 0.011v0.003h-0.003c-0.003 0.008-0.005 0.013-0.011 0.019v0.008h-0.003c-0.013 0.016-0.021 0.032-0.032 0.048v0.003c-0.005 0.005-0.019 0.016-0.024 0.027v0.005h-0.003c-0.003 0.003-0.008 0.005-0.008 0.008v0.008h-0.005l-0.008 0.008v0.003h-0.003c0 0.003-0.005 0.005-0.008 0.011v0.011h-0.008l-0.005 0.005v0.005h-0.005c0 0.005-0.005 0.005-0.005 0.008v0.008h-0.011c0 0.003-0.003 0.005-0.005 0.008v0.016h-0.008v0.011h-0.011v0.016h-0.011v0.021h-0.013v-0.021h-0.013v0.011h-0.011v0.016h-0.013v0.021h-0.013v0.011h-0.011v0.016h-0.011v0.011h-0.011v0.021h-0.016v0.011h-0.011v0.016h-0.013v0.011h-0.011v0.013h-0.013v0.027h-0.005v0.011h-0.016v0.013h-0.011v0.005h-0.011v0.011h-0.013v0.027h-0.011v0.011h-0.013v0.011h-0.011v0.016h-0.013v0.011h-0.013v0.011h-0.011v0.011h-0.011v0.027h-0.011v0.013h-0.016v0.011h-0.011v0.011h-0.013v0.016h-0.011v0.011h-0.013v0.019h-0.011v0.011h-0.016v0.016h-0.005v0.011h-0.011v0.011h-0.013v0.011h-0.011v0.016h-0.013v0.011h-0.008c-0.003 0.003-0.003 0.005-0.003 0.005v0.005h-0.005l-0.011 0.011s-0.005 0.005-0.011 0.008v0.016h-0.011v0.013h-0.011v0.011h-0.011v0.011h-0.008l-0.008 0.008v0.008h-0.005l-0.005 0.005v0.008h-0.005c-0.013 0.016-0.019 0.027-0.037 0.043-0.005 0.005-0.021 0.019-0.032 0.027-0.032 0.021-0.072 0.056-0.104 0.085-0.021 0.013-0.043 0.032-0.059 0.045v0.003h-0.003c-0.043 0.035-0.083 0.067-0.131 0.104v0.003c-0.064 0.053-0.125 0.104-0.197 0.165v-0.003h-0.005c-0.152 0.125-0.312 0.267-0.496 0.424v0.003h-0.003c-0.451 0.395-0.987 0.901-1.587 1.515l-0.051 0.051c-3.627 3.752-9.341 11.571-9.944 24.205-0.053 1.045-0.043 2.061 0.016 3.051v0.024c0.291 4.979 1.853 9.229 3.808 12.683v0.003c0.779 1.376 1.619 2.627 2.469 3.747v0.003c2.939 3.88 5.939 6.179 6.704 6.736 1.176 2.728 1.067 7.411 1.067 7.411l1.717 0.573s-0.349-4.536 0.141-6.725c0.152-0.685 0.512-1.269 0.931-1.765 0.283-0.2 1.12-0.803 2.125-1.72 0.048-0.051 0.075-0.096 0.117-0.144 4.056-3.781 11.632-13.093 9.035-28.264z"></path>
</svg>
