<!-- Generated by IcoMoon.io -->
<svg version="1.1" xmlns="http://www.w3.org/2000/svg" width="64" height="64" viewBox="0 0 64 64">
<title>mozillafirefox</title>
<path fill="#ff9400" d="M62.427 29.28c-0.080-0.56-0.187-0.907-0.187-0.907s-0.213 0.267-0.587 0.747c-0.107-1.36-0.347-2.72-0.72-4.027-0.48-1.653-1.093-3.253-1.867-4.773-0.48-1.013-1.040-2-1.707-2.907-0.347-0.533-0.64-0.933-0.693-1.013-1.147-1.867-2.427-2.987-3.947-5.12-0.96-1.627-1.627-3.44-1.947-5.307-0.427 1.12-0.747 2.293-0.96 3.467-1.52-1.547-2.88-2.667-3.68-3.413-4-3.733-3.52-5.653-3.52-5.653s-7.467 8.32-4.24 16.987c1.12 2.933 3.040 5.52 5.573 7.413 3.12 2.56 6.48 4.587 8.24 9.787-1.413-2.747-3.573-5.013-6.213-6.587 0.8 1.893 1.2 3.893 1.173 5.947 0 7.787-6.32 14.107-14.133 14.107-1.040 0-2.107-0.107-3.12-0.347-1.227-0.24-2.4-0.64-3.493-1.2-1.653-0.987-3.093-2.293-4.213-3.867v-0.027c0.133 0.053 0.213 0.080 0.24 0.080 0.587 0.213 1.173 0.373 1.787 0.48 2.4 0.507 4.88 0.213 7.093-0.827 2.24-1.253 3.6-2.16 4.693-1.813s1.92-0.693 1.173-1.787c-1.333-1.733-3.52-2.56-5.653-2.187-2.24 0.32-4.293 1.893-7.2 0.373-0.213-0.107-0.373-0.213-0.56-0.32-0.187-0.133 0.64 0.16 0.427 0.027-0.64-0.32-1.253-0.667-1.84-1.093-0.027-0.027 0.453 0.133 0.4 0.107-0.747-0.507-1.413-1.173-1.92-1.947-0.507-0.933-0.56-2.080-0.133-3.067 0.293-0.507 0.693-0.88 1.2-1.12 0.373 0.187 0.613 0.32 0.613 0.32s-0.187-0.32-0.267-0.48c0.027-0.027 0.053 0 0.107-0.027 0.32 0.133 1.040 0.507 1.44 0.747 0.267 0.133 0.48 0.347 0.667 0.587 0 0 0.133-0.053 0.027-0.347-0.133-0.347-0.373-0.64-0.693-0.827h0.053c0.293 0.16 0.56 0.32 0.827 0.533 0.24-0.587 0.373-1.173 0.347-1.787 0.027-0.347-0.027-0.693-0.133-0.987-0.107-0.213 0.053-0.293 0.24-0.080-0.027-0.16-0.080-0.32-0.16-0.48 0 0 0.107-0.16 0.16-0.187 0.133-0.133 0.267-0.267 0.427-0.347 0.933-0.587 1.893-1.093 2.907-1.493 0.827-0.347 1.493-0.64 1.627-0.72 0.213-0.133 0.4-0.267 0.587-0.427 0.693-0.587 1.147-1.387 1.307-2.267 0.027-0.133 0.027-0.24 0.027-0.347v-0.213c-0.107-0.453-0.88-0.773-4.907-1.173-1.413-0.213-2.56-1.28-2.88-2.693v0.027c-0.053 0.133-0.107 0.293-0.16 0.453 0.053-0.16 0.107-0.293 0.16-0.453v-0.027c0.773-2 2.16-3.733 3.947-4.907 0.107-0.080-0.4 0.027-0.293-0.053 0.32-0.16 0.667-0.32 1.040-0.453 0.187-0.053-0.773-0.427-1.627-0.347-0.507 0.027-1.013 0.16-1.493 0.347 0.213-0.16 0.8-0.373 0.667-0.373-1.093 0.187-2.133 0.587-3.067 1.147 0-0.107 0.027-0.187 0.053-0.267-0.747 0.32-1.413 0.827-1.893 1.467v-0.347c-0.347 0.267-0.64 0.56-0.933 0.88h-0.027c-2.213-0.853-4.613-1.067-6.96-0.587l-0.027-0.027h0.027c-0.48-0.373-0.907-0.853-1.227-1.387l-0.027 0.027-0.053-0.053c-0.16-0.213-0.293-0.48-0.453-0.773-0.133-0.187-0.24-0.427-0.373-0.667 0 0 0-0.027-0.027-0.027s-0.080 0.24-0.107 0.16c-0.4-1.067-0.613-2.213-0.56-3.333h-0.027c-0.667 0.453-1.173 1.093-1.413 1.867-0.133 0.267-0.213 0.4-0.293 0.56v-0.080l0.080-0.4c-0.027 0.027-0.027 0.053-0.053 0.080-0.187 0.213-0.347 0.453-0.48 0.72-0.133 0.24-0.24 0.507-0.32 0.773v-0.133c0-0.107 0.027-0.267 0-0.213l-0.027 0.080c-0.853 1.893-1.413 3.92-1.6 6-0.053 0.373-0.053 0.72-0.053 1.067v0.053c-0.613 0.667-1.147 1.387-1.627 2.16-1.547 2.613-2.693 5.44-3.413 8.4 0.507-1.12 1.12-2.213 1.84-3.227-1.387 3.493-2.080 7.173-2.080 10.907 0.24-1.093 0.533-2.16 0.88-3.227-0.213 4.4 0.64 8.8 2.48 12.827 2.48 5.547 6.587 10.213 11.813 13.36 2.107 1.44 4.427 2.56 6.853 3.307 0.32 0.107 0.667 0.24 0.987 0.347-0.107-0.053-0.187-0.107-0.293-0.133 2.88 0.853 5.893 1.307 8.907 1.307 10.693 0 14.213-4.080 14.56-4.48 0.507-0.48 0.96-1.040 1.253-1.707 0.213-0.080 0.4-0.16 0.613-0.267l0.133-0.053c0.16-0.080 0.24-0.107 0.24-0.107 1.627-0.773 3.147-1.707 4.533-2.827 2.080-1.493 3.547-3.68 4.187-6.16 0.4-0.907 0.4-1.893 0.080-2.827 0.16-0.267 0.293-0.507 0.32-0.56 2.293-3.68 3.6-7.893 3.787-12.24v-0.373c0-0.907-0.080-1.84-0.24-2.747z"></path>
</svg>
