<!-- Generated by IcoMoon.io -->
<svg version="1.1" xmlns="http://www.w3.org/2000/svg" width="64" height="64" viewBox="0 0 64 64">
<title>mysql</title>
<path fill="#4479a1" d="M43.747 15.136c-0.307 0-0.515 0.037-0.731 0.088v0.035h0.037c0.144 0.277 0.389 0.48 0.571 0.728 0.144 0.285 0.267 0.571 0.411 0.853l0.037-0.040c0.251-0.176 0.373-0.459 0.373-0.888-0.107-0.125-0.123-0.251-0.213-0.373-0.107-0.179-0.336-0.267-0.48-0.408zM15.387 50.32h-2.472c-0.080-4.165-0.328-8.080-0.72-11.76h-0.021l-3.76 11.76h-1.88l-3.733-11.76h-0.027c-0.275 3.528-0.448 7.448-0.52 11.76h-2.253c0.147-5.243 0.512-10.16 1.093-14.747h3.067l3.56 10.837h0.021l3.592-10.837h2.92c0.645 5.373 1.024 10.293 1.141 14.747zM26.099 39.44c-1.008 5.453-2.336 9.421-3.979 11.893-1.285 1.909-2.693 2.861-4.221 2.861-0.408 0-0.907-0.123-1.509-0.368v-1.317c0.293 0.045 0.64 0.069 1.029 0.069 0.715 0 1.288-0.2 1.725-0.592 0.525-0.48 0.787-1.019 0.787-1.613 0-0.413-0.205-1.253-0.613-2.517l-2.704-8.416h2.427l1.939 6.293c0.437 1.429 0.621 2.427 0.547 2.995 1.067-2.837 1.808-5.939 2.227-9.288h2.347zM58.965 50.32h-7.013v-14.747h2.36v12.933h4.653zM50.112 50.68l-2.709-1.333c0.24-0.203 0.472-0.421 0.68-0.667 1.155-1.349 1.728-3.355 1.728-6.008 0-4.88-1.915-7.323-5.747-7.323-1.877 0-3.344 0.619-4.4 1.859-1.147 1.355-1.723 3.349-1.723 5.987 0 2.592 0.507 4.496 1.531 5.707 0.933 1.093 2.339 1.64 4.221 1.64 0.704 0 1.349-0.088 1.933-0.261l3.533 2.059 0.96-1.659zM41.333 47.368c-0.6-0.96-0.899-2.507-0.899-4.629 0-3.715 1.131-5.573 3.387-5.573 1.181 0 2.053 0.445 2.605 1.333 0.597 0.965 0.896 2.496 0.896 4.595 0 3.744-1.131 5.621-3.387 5.621-1.187 0-2.053-0.445-2.608-1.333zM36.912 46.235c0 1.253-0.459 2.283-1.376 3.083s-2.141 1.2-3.691 1.2c-1.448 0-2.837-0.459-4.195-1.373l0.632-1.269c1.168 0.587 2.221 0.875 3.173 0.875 0.885 0 1.581-0.195 2.088-0.587 0.501-0.392 0.8-0.944 0.8-1.64 0-0.88-0.613-1.627-1.728-2.253-1.035-0.568-3.101-1.752-3.101-1.752-1.125-0.819-1.685-1.696-1.685-3.139 0-1.2 0.419-2.16 1.253-2.893 0.84-0.741 1.92-1.107 3.253-1.107 1.365 0 2.613 0.363 3.733 1.093l-0.568 1.269c-0.96-0.405-1.907-0.613-2.837-0.613-0.755 0-1.339 0.181-1.744 0.549-0.408 0.363-0.661 0.827-0.661 1.397 0 0.875 0.624 1.627 1.776 2.267 1.048 0.573 3.165 1.787 3.165 1.787 1.155 0.813 1.728 1.68 1.728 3.115zM61.931 30.629c-1.427-0.037-2.533 0.107-3.459 0.501-0.267 0.107-0.693 0.107-0.731 0.445 0.147 0.141 0.168 0.373 0.293 0.571 0.213 0.357 0.581 0.835 0.923 1.085 0.373 0.293 0.747 0.576 1.139 0.827 0.693 0.427 1.48 0.68 2.16 1.109 0.387 0.251 0.781 0.568 1.173 0.835 0.195 0.133 0.32 0.373 0.571 0.459v-0.053c-0.123-0.16-0.16-0.392-0.28-0.571-0.179-0.179-0.357-0.339-0.533-0.515-0.517-0.693-1.16-1.299-1.853-1.8-0.571-0.389-1.819-0.933-2.053-1.587l-0.035-0.037c0.389-0.035 0.853-0.176 1.227-0.283 0.605-0.16 1.16-0.125 1.787-0.283 0.283-0.072 0.568-0.16 0.853-0.251v-0.16c-0.32-0.32-0.56-0.755-0.891-1.053-0.907-0.787-1.912-1.552-2.944-2.195-0.56-0.357-1.269-0.587-1.859-0.891-0.213-0.107-0.571-0.16-0.693-0.339-0.32-0.389-0.507-0.907-0.733-1.371-0.512-0.981-1.013-2.067-1.459-3.101-0.32-0.699-0.515-1.395-0.907-2.035-1.84-3.032-3.832-4.869-6.896-6.667-0.659-0.373-1.448-0.533-2.283-0.731-0.445-0.021-0.891-0.053-1.333-0.072-0.293-0.125-0.576-0.464-0.827-0.627-1.013-0.64-3.637-2.027-4.384-0.192-0.48 1.157 0.712 2.299 1.125 2.885 0.307 0.408 0.693 0.875 0.907 1.333 0.125 0.309 0.16 0.627 0.285 0.949 0.283 0.784 0.552 1.659 0.925 2.392 0.195 0.373 0.408 0.765 0.659 1.101 0.144 0.195 0.389 0.285 0.445 0.605-0.251 0.363-0.267 0.891-0.411 1.333-0.64 2.019-0.389 4.515 0.517 6 0.285 0.443 0.965 1.424 1.875 1.048 0.8-0.32 0.624-1.333 0.853-2.227 0.053-0.213 0.019-0.355 0.128-0.499v0.040c0.251 0.501 0.501 0.979 0.731 1.48 0.549 0.875 1.509 1.781 2.312 2.387 0.427 0.32 0.765 0.875 1.299 1.072v-0.053h-0.040c-0.115-0.155-0.267-0.229-0.411-0.355-0.32-0.32-0.68-0.712-0.933-1.067-0.747-1.005-1.405-2.107-1.992-3.248-0.293-0.56-0.539-1.163-0.773-1.715-0.107-0.213-0.107-0.533-0.285-0.64-0.267 0.389-0.659 0.728-0.853 1.208-0.339 0.768-0.373 1.712-0.501 2.693-0.072 0.019-0.037 0-0.072 0.037-0.571-0.139-0.765-0.731-0.979-1.227-0.533-1.267-0.621-3.301-0.16-4.76 0.125-0.373 0.659-1.552 0.445-1.909-0.112-0.339-0.464-0.533-0.659-0.808-0.232-0.331-0.48-0.76-0.64-1.139-0.427-0.997-0.64-2.101-1.104-3.099-0.213-0.461-0.587-0.944-0.891-1.368-0.339-0.48-0.712-0.819-0.981-1.387-0.088-0.195-0.213-0.517-0.072-0.731 0.037-0.144 0.112-0.2 0.251-0.24 0.235-0.192 0.893 0.059 1.125 0.165 0.659 0.267 1.213 0.517 1.765 0.891 0.251 0.176 0.52 0.515 0.84 0.603h0.373c0.571 0.125 1.213 0.037 1.747 0.195 0.947 0.304 1.8 0.747 2.565 1.227 2.336 1.483 4.256 3.587 5.56 6.096 0.213 0.411 0.307 0.787 0.501 1.213 0.373 0.88 0.835 1.768 1.213 2.619 0.373 0.84 0.733 1.696 1.269 2.392 0.267 0.373 1.339 0.568 1.819 0.763 0.355 0.16 0.907 0.307 1.227 0.501 0.613 0.373 1.211 0.8 1.787 1.211 0.293 0.203 1.181 0.648 1.235 1.008z"></path>
</svg>
