<!-- Generated by IcoMoon.io -->
<svg version="1.1" xmlns="http://www.w3.org/2000/svg" width="64" height="64" viewBox="0 0 64 64">
<title>php</title>
<path fill="#777bb4" d="M18.693 27.219h-2.517l-1.373 7.061h2.235c1.483 0 2.587-0.28 3.312-0.837 0.725-0.56 1.213-1.491 1.467-2.797 0.245-1.253 0.133-2.139-0.331-2.653-0.467-0.515-1.395-0.773-2.792-0.773zM32 15.168c-17.672 0-32 7.536-32 16.832s14.328 16.835 32 16.835 32-7.539 32-16.835c0-9.296-14.328-16.832-32-16.832zM23.307 35.037c-0.696 0.667-1.533 1.168-2.445 1.469-0.896 0.288-2.040 0.437-3.427 0.437h-3.149l-0.872 4.483h-3.675l3.28-16.869h7.067c2.125 0 3.675 0.557 4.651 1.675 0.976 1.115 1.269 2.672 0.88 4.672-0.163 0.85-0.446 1.607-0.833 2.297l0.020-0.038c-0.381 0.68-0.88 1.307-1.496 1.875zM34.037 36.944l1.448-7.464c0.168-0.848 0.104-1.429-0.181-1.736-0.285-0.309-0.896-0.464-1.832-0.464h-2.912l-1.877 9.667h-3.648l3.28-16.872h3.645l-0.872 4.485h3.248c2.045 0 3.453 0.357 4.229 1.069s1.008 1.867 0.701 3.464l-1.525 7.851h-3.704zM54.296 30.904c-0.16 0.85-0.443 1.607-0.833 2.296l0.019-0.037c-0.381 0.68-0.88 1.307-1.496 1.875-0.675 0.645-1.492 1.148-2.4 1.456l-0.046 0.014c-0.896 0.288-2.040 0.437-3.429 0.437h-3.147l-0.872 4.485h-3.675l3.28-16.869h7.064c2.125 0 3.675 0.557 4.651 1.675 0.976 1.112 1.272 2.669 0.883 4.669zM47.376 27.219h-2.515l-1.376 7.061h2.235c1.485 0 2.589-0.28 3.312-0.837 0.725-0.56 1.213-1.491 1.469-2.797 0.245-1.253 0.131-2.139-0.333-2.653s-1.397-0.773-2.792-0.773z"></path>
</svg>
