<!-- Generated by IcoMoon.io -->
<svg version="1.1" xmlns="http://www.w3.org/2000/svg" width="64" height="64" viewBox="0 0 64 64">
<title>pinterest</title>
<path fill="#bd081c" d="M32.045 0c-17.656 0-31.968 14.312-31.968 31.965 0 13.544 8.421 25.112 20.315 29.765-0.28-2.531-0.531-6.408 0.109-9.171 0.584-2.499 3.749-15.885 3.749-15.885s-0.957-1.92-0.957-4.749c0-4.435 2.579-7.763 5.781-7.763 2.731 0 4.048 2.051 4.048 4.501 0 2.744-1.741 6.845-2.645 10.645-0.76 3.181 1.6 5.773 4.733 5.773 5.675 0 10.048-5.987 10.048-14.632 0-7.629-5.501-12.984-13.355-12.984-9.093 0-14.424 6.832-14.424 13.864 0 2.755 1.051 5.715 2.371 7.309 0.264 0.32 0.299 0.6 0.227 0.92-0.24 1-0.781 3.197-0.891 3.635-0.141 0.6-0.459 0.723-1.069 0.44-3.987-1.84-6.488-7.675-6.488-12.389 0-10.069 7.328-19.339 21.12-19.339 11.088 0 19.712 7.912 19.712 18.461 0 11.027-6.952 19.899-16.621 19.899-3.237 0-6.277-1.677-7.355-3.677l-1.997 7.595c-0.717 2.787-2.677 6.272-3.995 8.389 2.995 0.92 6.149 1.427 9.467 1.427 17.619 0 31.96-14.307 31.96-31.965 0-17.661-14.341-31.965-31.96-31.965l0.085-0.069z"></path>
</svg>
