<!-- Generated by IcoMoon.io -->
<svg version="1.1" xmlns="http://www.w3.org/2000/svg" width="64" height="64" viewBox="0 0 64 64">
<title>postgresql</title>
<path fill="#336791" d="M45.675 0c-2.625 0.020-5.151 0.411-7.538 1.124l0.191-0.049-0.168 0.053c-1.354-0.252-2.928-0.411-4.533-0.44l-0.027-0c-3.141-0.053-5.84 0.709-8.016 1.979-2.144-0.744-6.592-2.027-11.28-1.771-3.264 0.179-6.827 1.171-9.467 3.957-2.632 2.787-4.024 7.099-3.731 12.965 0.080 1.619 0.541 4.259 1.307 7.677s1.84 7.421 3.181 11.072c1.341 3.653 2.811 6.933 5.107 9.163 1.147 1.117 2.725 2.056 4.587 1.979 1.307-0.053 2.488-0.627 3.507-1.472 0.496 0.653 1.027 0.939 1.509 1.203 0.608 0.333 1.2 0.56 1.813 0.709 1.101 0.275 2.987 0.643 5.195 0.267 0.752-0.125 1.544-0.371 2.333-0.72 0.029 0.88 0.064 1.741 0.099 2.613 0.109 2.763 0.179 5.315 1.008 7.552 0.133 0.365 0.499 2.248 1.939 3.909 1.44 1.664 4.261 2.701 7.475 2.013 2.267-0.485 5.149-1.36 7.064-4.085 1.893-2.693 2.747-6.557 2.915-12.824 0.043-0.339 0.093-0.627 0.147-0.896l0.451 0.040h0.053c2.419 0.109 5.043-0.235 7.235-1.253 1.941-0.899 3.411-1.808 4.48-3.421 0.267-0.4 0.56-0.883 0.64-1.715s-0.397-2.133-1.189-2.733c-1.587-1.205-2.584-0.747-3.653-0.525-0.952 0.22-2.054 0.361-3.184 0.389l-0.021 0c3.083-5.192 5.293-10.707 6.555-15.587 0.747-2.88 1.165-5.536 1.2-7.859s-0.155-4.379-1.547-6.157c-4.349-5.557-10.464-7.093-15.195-7.147-0.147-0.003-0.293-0.005-0.44-0.003zM45.549 1.707c4.475-0.043 10.192 1.213 14.296 6.459 0.923 1.179 1.197 2.901 1.165 5.024-0.035 2.12-0.427 4.659-1.144 7.44-1.392 5.387-4.021 11.667-7.725 17.301 0.122 0.087 0.26 0.164 0.408 0.224l0.014 0.005c0.773 0.32 2.536 0.595 6.053-0.128 0.885-0.187 1.533-0.312 2.205 0.2 0.301 0.256 0.49 0.635 0.49 1.058 0 0.027-0.001 0.053-0.002 0.079l0-0.004c-0.039 0.34-0.163 0.645-0.35 0.901l0.004-0.005c-0.68 1.021-2.021 1.989-3.741 2.787-1.523 0.709-3.707 1.080-5.643 1.101-0.971 0.011-1.867-0.064-2.627-0.301l-0.048-0.019c-0.293 2.827-0.968 8.408-1.408 10.955-0.352 2.053-0.968 3.685-2.144 4.907-1.173 1.221-2.835 1.957-5.069 2.437-2.768 0.595-4.787-0.045-6.088-1.141-1.299-1.093-1.893-2.544-2.251-3.432-0.245-0.613-0.373-1.408-0.496-2.469s-0.213-2.36-0.275-3.824c-0.058-1.489-0.091-3.238-0.091-4.994 0-0.61 0.004-1.218 0.012-1.826l-0.001 0.092c-1.116 1.024-2.526 1.745-4.090 2.020l-0.049 0.007c-1.837 0.312-3.477 0.005-4.456-0.24-0.527-0.134-0.988-0.318-1.419-0.552l0.032 0.016c-0.453-0.243-0.885-0.517-1.173-1.059-0.115-0.207-0.183-0.453-0.183-0.715 0-0.106 0.011-0.21 0.032-0.31l-0.002 0.010c0.095-0.361 0.3-0.664 0.578-0.88l0.004-0.003c0.528-0.429 1.227-0.669 2.28-0.888 1.917-0.395 2.587-0.664 2.995-0.987 0.347-0.277 0.739-0.837 1.432-1.659-0.003-0.025-0.005-0.063-0.008-0.101l-0-0.008c-1.306-0.038-2.522-0.387-3.587-0.975l0.041 0.021c-0.4 0.421-2.443 2.581-4.933 5.579-1.048 1.253-2.205 1.973-3.427 2.024-1.221 0.053-2.325-0.563-3.264-1.472-1.875-1.821-3.371-4.955-4.675-8.496-1.301-3.541-2.36-7.485-3.112-10.845-0.755-3.36-1.2-6.069-1.264-7.376-0.28-5.552 1.019-9.293 3.245-11.653 2.229-2.36 5.285-3.253 8.264-3.424 5.347-0.307 10.424 1.557 11.451 1.957 1.979-1.344 4.528-2.181 7.712-2.128 1.602 0.023 3.144 0.234 4.619 0.611l-0.136-0.030 0.053-0.024c0.515-0.191 1.173-0.387 1.847-0.546l0.124-0.025c1.651-0.402 3.552-0.645 5.506-0.669l0.016-0zM45.955 3.493h-0.389c-1.622 0.023-3.188 0.209-4.698 0.54l0.154-0.028c3.323 1.472 5.832 3.739 7.6 6 1.169 1.479 2.181 3.165 2.963 4.974l0.056 0.146c0.293 0.704 0.491 1.299 0.603 1.76 0.056 0.232 0.093 0.427 0.107 0.629 0.005 0.101 0.011 0.205-0.032 0.384 0 0.008-0.013 0.027-0.016 0.035 0.080 2.336-0.499 3.92-0.568 6.149-0.053 1.616 0.36 3.515 0.461 5.587 0.096 1.947-0.139 4.085-1.403 6.184 0.107 0.128 0.203 0.256 0.304 0.384 3.344-5.267 5.755-11.093 7.040-16.061 0.688-2.675 1.053-5.099 1.085-7.019 0.027-1.92-0.331-3.312-0.787-3.893-3.579-4.576-8.421-5.741-12.48-5.773zM33.181 4.176c-3.152 0.008-5.413 0.96-7.128 2.387-1.768 1.475-2.955 3.493-3.733 5.56-0.925 2.453-1.243 4.827-1.368 6.437l0.035-0.021c0.952-0.533 2.203-1.067 3.541-1.376 1.339-0.307 2.781-0.403 4.088 0.104s2.387 1.699 2.779 3.507c1.877 8.685-0.584 11.915-1.491 14.352-0.288 0.702-0.589 1.602-0.841 2.522l-0.042 0.18c0.115-0.027 0.229-0.059 0.344-0.069 0.64-0.053 1.141 0.16 1.44 0.288 0.912 0.379 1.539 1.173 1.877 2.080 0.088 0.237 0.152 0.493 0.189 0.757 0.034 0.091 0.054 0.196 0.054 0.306 0 0.011-0 0.023-0.001 0.034l0-0.002c-0.043 1.333-0.068 2.9-0.068 4.473 0 1.932 0.037 3.856 0.111 5.771l-0.008-0.276c0.061 1.435 0.152 2.699 0.267 3.696 0.115 0.995 0.277 1.752 0.381 2.008 0.341 0.853 0.84 1.971 1.741 2.731 0.901 0.757 2.195 1.264 4.557 0.757 2.048-0.44 3.312-1.051 4.157-1.928 0.843-0.877 1.347-2.099 1.669-3.968 0.483-2.8 1.453-10.92 1.571-12.448-0.053-1.152 0.117-2.037 0.485-2.712 0.379-0.693 0.965-1.117 1.472-1.347 0.253-0.115 0.491-0.192 0.685-0.248-0.237-0.34-0.45-0.622-0.672-0.897l0.024 0.030c-0.7-0.844-1.296-1.81-1.746-2.854l-0.030-0.077c-0.273-0.558-0.501-0.98-0.742-1.393l0.057 0.105c-0.355-0.64-0.803-1.44-1.272-2.339-0.939-1.8-1.96-3.981-2.491-6.107-0.528-2.123-0.605-4.32 0.749-5.869 1.2-1.376 3.307-1.947 6.469-1.627-0.093-0.28-0.149-0.512-0.307-0.885-0.772-1.796-1.703-3.345-2.81-4.748l0.034 0.044c-2.68-3.427-7.019-6.824-13.723-6.933h-0.307zM15.469 4.315c-0.339 0-0.677 0.011-1.013 0.029-2.693 0.155-5.24 0.936-7.061 2.867-1.824 1.931-3.024 5.096-2.763 10.336 0.051 0.992 0.483 3.771 1.224 7.072 0.739 3.301 1.787 7.187 3.045 10.619 1.261 3.432 2.789 6.419 4.24 7.832 0.731 0.707 1.365 0.992 1.941 0.968 0.579-0.027 1.275-0.36 2.125-1.381 1.672-2.012 3.25-3.79 4.88-5.518l-0.053 0.057c-1.972-1.719-3.212-4.236-3.212-7.041 0-0.479 0.036-0.95 0.106-1.41l-0.006 0.052c0.275-1.971 0.312-3.813 0.28-5.269-0.032-1.419-0.133-2.363-0.133-2.952-0-0.008-0-0.016-0-0.025s0-0.018 0-0.027v0.001-0.013l-0.003-0.016v-0.003c0-0.004 0-0.009 0-0.014 0-3.225 0.579-6.315 1.638-9.172l-0.059 0.183c0.747-1.984 1.859-4 3.525-5.632-1.637-0.539-4.544-1.36-7.691-1.515-0.301-0.016-0.656-0.026-1.012-0.027h-0.001zM48.531 18.4c-1.811 0.024-2.827 0.491-3.36 1.101-0.755 0.867-0.827 2.387-0.357 4.259 0.467 1.875 1.432 3.971 2.339 5.712 0.453 0.872 0.893 1.656 1.248 2.293 0.357 0.64 0.619 1.093 0.779 1.48 0.147 0.357 0.309 0.672 0.475 0.965 0.701-1.48 0.827-2.933 0.755-4.448-0.093-1.875-0.528-3.792-0.464-5.733 0.072-2.269 0.52-3.747 0.56-5.501-0.592-0.081-1.277-0.128-1.973-0.128h-0.001zM26.573 18.707c-0.585 0.006-1.151 0.077-1.694 0.208l0.051-0.010c-1.166 0.288-2.19 0.698-3.137 1.23l0.063-0.032c-0.355 0.192-0.659 0.393-0.944 0.618l0.014-0.010-0.059 0.053c0.016 0.389 0.093 1.333 0.125 2.723 0.032 1.52-0.005 3.459-0.299 5.557-0.637 4.56 2.672 8.336 6.56 8.341 0.227-0.936 0.6-1.885 0.973-2.885 1.083-2.917 3.213-5.045 1.419-13.349-0.293-1.36-0.875-1.909-1.675-2.219-0.39-0.142-0.841-0.225-1.311-0.225-0.030 0-0.061 0-0.091 0.001l0.005-0zM47.685 19.251h0.133c0.176 0.005 0.339 0.024 0.48 0.059 0.144 0.032 0.267 0.080 0.368 0.147 0.103 0.065 0.177 0.169 0.2 0.291l0 0.003-0.003 0.021c0 0.008 0.001 0.017 0.001 0.026 0 0.123-0.035 0.239-0.095 0.336l0.002-0.003c-0.083 0.153-0.181 0.284-0.294 0.4l0-0c-0.264 0.29-0.618 0.493-1.018 0.564l-0.011 0.002c-0.057 0.007-0.122 0.011-0.189 0.011-0.339 0-0.653-0.107-0.909-0.289l0.005 0.003c-0.133-0.090-0.247-0.194-0.344-0.312l-0.002-0.003c-0.083-0.092-0.143-0.207-0.167-0.334l-0.001-0.004c-0.001-0.012-0.002-0.026-0.002-0.041 0-0.116 0.043-0.221 0.114-0.301l-0 0c0.086-0.098 0.19-0.178 0.306-0.237l0.006-0.003c0.256-0.144 0.603-0.251 0.995-0.309 0.147-0.021 0.291-0.032 0.427-0.035zM26.832 19.699c0.141 0 0.291 0.013 0.443 0.035 0.408 0.056 0.771 0.165 1.048 0.325 0.139 0.073 0.257 0.168 0.353 0.281l0.001 0.002c0.091 0.104 0.147 0.241 0.147 0.392 0 0.022-0.001 0.043-0.003 0.064l0-0.003c-0.027 0.16-0.099 0.3-0.201 0.411l0.001-0.001c-0.109 0.134-0.235 0.248-0.375 0.343l-0.006 0.004c-0.274 0.196-0.617 0.314-0.987 0.314-0.073 0-0.146-0.005-0.216-0.014l0.008 0.001c-0.447-0.075-0.833-0.294-1.119-0.607l-0.001-0.002c-0.122-0.126-0.226-0.27-0.31-0.427l-0.005-0.010c-0.071-0.112-0.113-0.249-0.113-0.395 0-0.027 0.001-0.054 0.004-0.080l-0 0.003c0.040-0.288 0.277-0.437 0.509-0.52 0.21-0.070 0.452-0.11 0.703-0.11 0.041 0 0.081 0.001 0.121 0.003l-0.006-0zM50.992 39.28l-0.008 0.003c-0.392 0.141-0.715 0.2-0.987 0.32-0.278 0.109-0.5 0.31-0.634 0.564l-0.003 0.007c-0.168 0.307-0.312 0.851-0.269 1.776 0.113 0.079 0.244 0.143 0.385 0.184l0.010 0.002c0.456 0.139 1.221 0.229 2.075 0.216 1.701-0.019 3.795-0.416 4.907-0.933 0.962-0.452 1.79-1 2.526-1.65l-0.011 0.010h-0.003c-3.715 0.768-5.813 0.563-7.101 0.032-0.339-0.143-0.631-0.322-0.891-0.538l0.006 0.005zM29.576 39.531h-0.056c-0.141 0.013-0.347 0.061-0.744 0.501-0.928 1.040-1.253 1.693-2.019 2.304-0.765 0.608-1.76 0.933-3.747 1.341-0.629 0.128-0.989 0.269-1.229 0.384 0.077 0.064 0.069 0.080 0.187 0.141 0.291 0.16 0.664 0.301 0.965 0.379 0.853 0.213 2.256 0.461 3.72 0.213 1.464-0.251 2.987-0.952 4.285-2.773 0.224-0.315 0.248-0.779 0.064-1.277-0.187-0.499-0.595-0.928-0.883-1.048-0.158-0.078-0.342-0.135-0.535-0.159l-0.009-0.001z"></path>
</svg>
