<!-- Generated by IcoMoon.io -->
<svg version="1.1" xmlns="http://www.w3.org/2000/svg" width="64" height="64" viewBox="0 0 64 64">
<title>python</title>
<path fill="#3776ab" d="M38.16 0.48l2.4 0.533 1.947 0.693 1.573 0.8 1.2 0.853 0.907 0.907 0.667 0.907 0.427 0.88 0.267 0.8 0.107 0.693 0.053 0.533-0.027 0.347v14.24l-0.133 1.68-0.347 1.467-0.56 1.227-0.693 1.013-0.8 0.827-0.88 0.667-0.933 0.507-0.933 0.373-0.88 0.267-0.8 0.187-0.693 0.107-0.56 0.053h-15.92l-1.84 0.133-1.573 0.373-1.333 0.587-1.093 0.72-0.88 0.853-0.72 0.933-0.533 0.96-0.4 0.987-0.267 0.933-0.187 0.853-0.107 0.72-0.053 0.56v8.16h-5.947l-0.56-0.080-0.747-0.187-0.853-0.32-0.933-0.48-0.96-0.693-0.96-0.96-0.933-1.227-0.853-1.573-0.747-1.947-0.56-2.347-0.373-2.8-0.133-3.28 0.16-3.253 0.427-2.773 0.64-2.32 0.853-1.893 0.96-1.52 1.067-1.173 1.12-0.88 1.12-0.64 1.067-0.427 0.96-0.267 0.853-0.133 0.64-0.027h0.427l0.16 0.027h21.76v-2.213h-15.573l-0.027-7.333-0.053-0.987 0.133-0.907 0.293-0.827 0.453-0.747 0.667-0.693 0.827-0.613 1.013-0.533 1.173-0.48 1.36-0.4 1.547-0.32 1.707-0.267 1.893-0.16 2.053-0.107 2.24-0.053 3.387 0.133 2.853 0.347zM21.36 5.76l-0.613 0.88-0.213 1.093 0.213 1.093 0.613 0.907 0.88 0.587 1.093 0.24 1.093-0.24 0.88-0.587 0.613-0.907 0.213-1.093-0.213-1.093-0.613-0.88-0.88-0.587-1.093-0.24-1.093 0.24-0.88 0.587zM56.267 16.293l0.747 0.16 0.853 0.32 0.933 0.48 0.96 0.72 0.96 0.933 0.933 1.253 0.853 1.573 0.747 1.947 0.56 2.347 0.373 2.773 0.133 3.28-0.16 3.28-0.427 2.773-0.64 2.293-0.853 1.893-0.96 1.52-1.067 1.2-1.12 0.88-1.12 0.64-1.067 0.427-0.96 0.24-0.853 0.133-0.64 0.053-0.427-0.027h-21.92v2.187h15.573l0.027 7.36 0.053 0.96-0.133 0.907-0.293 0.827-0.453 0.773-0.667 0.667-0.827 0.64-1.013 0.533-1.173 0.453-1.36 0.4-1.547 0.347-1.707 0.24-1.893 0.187-2.053 0.107-2.24 0.027-3.387-0.107-2.853-0.373-2.4-0.533-1.947-0.667-1.573-0.8-1.2-0.88-0.907-0.907-0.667-0.907-0.427-0.88-0.267-0.8-0.107-0.667-0.053-0.533 0.027-0.347v-14.24l0.133-1.707 0.347-1.44 0.56-1.227 0.693-1.013 0.8-0.853 0.88-0.64 0.933-0.533 0.933-0.373 0.88-0.267 0.8-0.16 0.693-0.107 0.56-0.053 0.347-0.027h15.573l1.84-0.133 1.573-0.373 1.333-0.56 1.093-0.747 0.88-0.853 0.72-0.933 0.533-0.96 0.4-0.96 0.267-0.933 0.187-0.853 0.107-0.747 0.053-0.56v-8.16h5.573l0.373 0.027 0.56 0.080zM39.013 54.293l-0.613 0.88-0.213 1.093 0.213 1.093 0.613 0.88 0.88 0.613 1.093 0.213 1.093-0.213 0.88-0.613 0.613-0.88 0.213-1.093-0.213-1.093-0.613-0.88-0.88-0.613-1.093-0.213-1.093 0.213-0.88 0.613z"></path>
</svg>
