<!-- Generated by IcoMoon.io -->
<svg version="1.1" xmlns="http://www.w3.org/2000/svg" width="64" height="64" viewBox="0 0 64 64">
<title>quora</title>
<path fill="#b92b27" d="M33.968 49.869c-2.216-4.36-4.813-8.765-9.888-8.765-0.965 0-1.939 0.163-2.824 0.557l-1.723-3.437c2.096-1.808 5.488-3.237 9.848-3.237 6.784 0 10.269 3.277 13.035 7.445 1.635-3.56 2.411-8.373 2.411-14.333 0-14.885-4.651-22.525-15.525-22.525-10.715 0-15.352 7.64-15.352 22.525 0 14.808 4.637 22.371 15.352 22.371 1.707 0 3.253-0.184 4.667-0.6zM36.624 55.061c-2.349 0.632-4.845 0.976-7.315 0.976-14.272 0-28.24-11.384-28.24-27.941 0.003-16.707 13.968-28.096 28.24-28.096 14.509 0 28.341 11.301 28.341 28.099 0 9.344-4.36 16.936-10.693 21.843 2.037 3.061 4.115 5.104 7.072 5.104 3.197 0 4.48-2.44 4.72-4.397h4.152c0.245 2.597-1.072 13.352-12.709 13.352-7.072 0-10.792-4.075-13.589-8.875l0.021-0.064z"></path>
</svg>
