<!-- Generated by IcoMoon.io -->
<svg version="1.1" xmlns="http://www.w3.org/2000/svg" width="64" height="64" viewBox="0 0 64 64">
<title>reddit</title>
<path fill="#ff4500" d="M5.877 37.464c-0.16 0.736-0.243 1.493-0.243 2.259 0 9.181 11.739 16.664 26.171 16.664 14.427 0 26.165-7.477 26.165-16.664 0-0.731-0.077-1.456-0.219-2.157l-0.040-0.085c-0.056-0.147-0.077-0.293-0.077-0.44-0.805-3.133-2.979-5.976-6.123-8.275-0.12-0.043-0.235-0.104-0.336-0.187-0.069-0.053-0.12-0.112-0.179-0.171-4.779-3.291-11.616-5.355-19.189-5.355-7.507 0-14.277 2.024-19.056 5.256-0.037 0.048-0.077 0.088-0.131 0.131-0.104 0.088-0.224 0.16-0.347 0.2-3.216 2.299-5.445 5.165-6.277 8.328 0 0.155-0.037 0.304-0.099 0.456l-0.021 0.040zM31.939 51.973c-4.784 0-8.152-1.037-10.301-3.192-0.461-0.464-0.461-1.219 0-1.685 0.469-0.44 1.227-0.44 1.693 0 1.68 1.677 4.493 2.515 8.608 2.515 4.112 0 6.909-0.8 8.584-2.477 0.44-0.437 1.2-0.437 1.677 0 0.44 0.48 0.44 1.24 0 1.72-2.157 2.155-5.507 3.195-10.299 3.195l0.037-0.075zM22.323 31.779c-2.437 0-4.472 2.040-4.472 4.472 0 2.427 2.035 4.4 4.472 4.4s4.403-1.973 4.403-4.4c0-2.432-1.971-4.472-4.403-4.472zM41.611 31.779c-2.437 0-4.475 2.040-4.475 4.472 0 2.427 2.037 4.4 4.475 4.4s4.403-1.973 4.403-4.4c0-2.432-1.971-4.472-4.403-4.472zM53.739 27.525c2.765 2.221 4.8 4.856 5.837 7.744 1.2-0.896 1.917-2.304 1.917-3.864 0-2.672-2.173-4.843-4.848-4.843-1.064 0-2.075 0.344-2.907 0.968v-0.005zM7.229 26.568c-2.675 0-4.845 2.176-4.845 4.848 0 1.448 0.637 2.795 1.717 3.704 1.069-2.877 3.125-5.475 5.901-7.669-0.805-0.56-1.768-0.877-2.771-0.877v-0.005zM31.808 58.779c-15.749 0-28.557-8.547-28.557-19.045 0-0.733 0.061-1.451 0.181-2.157-2.115-1.315-3.432-3.632-3.432-6.171 0-3.989 3.272-7.235 7.267-7.235 1.797 0 3.475 0.656 4.792 1.819 4.949-3.176 11.619-5.176 18.965-5.312l4.832-14.731 1.077 0.253s0.043 0 0.043 0.005l11.261 2.648c0.917-2.128 3.035-3.627 5.507-3.627 3.277 0 5.949 2.677 5.949 5.957 0 3.285-2.675 5.957-5.949 5.957s-5.947-2.677-5.947-5.947l-10.269-2.432-3.912 11.939c7.067 0.28 13.459 2.277 18.251 5.389 1.317-1.237 3.051-1.917 4.888-1.917 3.995 0 7.248 3.235 7.248 7.229 0 2.632-1.44 5.029-3.675 6.307 0.077 0.68 0.157 1.317 0.157 1.997-0.040 10.501-12.816 19.048-28.587 19.048l-0.091 0.024zM53.619 7.613c-1.973 0-3.573 1.597-3.573 3.568 0 1.968 1.6 3.573 3.573 3.573 1.952 0 3.547-1.6 3.547-3.557 0-1.955-1.595-3.552-3.592-3.552l0.045-0.032z"></path>
</svg>
