<!-- Generated by IcoMoon.io -->
<svg version="1.1" xmlns="http://www.w3.org/2000/svg" width="64" height="64" viewBox="0 0 64 64">
<title>ruby</title>
<path fill="#cc342d" d="M53.749 0.221c8.088 1.4 10.381 6.928 10.211 12.72l0.040-0.083-3.64 47.701-47.277 3.243c-3.928-0.165-12.683-0.525-13.083-12.765l4.387-8 8.859 20.688 7.48-24.384-0.080 0.019 0.043-0.080 24.68 7.883-3.723-14.483-2.64-10.4 23.52-1.517-1.64-1.36-16.885-13.765 9.757-5.443-0.008 0.027zM0 50.904v0zM13.68 13.528c9.496-9.421 21.752-14.989 26.459-10.24 4.699 4.739-0.28 16.28-9.795 25.696-9.501 9.419-21.608 15.291-26.304 10.552-4.709-4.739 0.12-16.579 9.632-26l0.008-0.008z"></path>
</svg>
