<!-- Generated by IcoMoon.io -->
<svg version="1.1" xmlns="http://www.w3.org/2000/svg" width="64" height="64" viewBox="0 0 64 64">
<title>safari</title>
<path d="M32 64c-17.672 0-32-14.328-32-32s14.328-32 32-32 32 14.328 32 32-14.328 32-32 32zM32 62c16.568 0 30-13.432 30-30s-13.432-30-30-30-30 13.432-30 30 13.432 30 30 30zM32 5.333c0.368 0 0.667 0.298 0.667 0.667v0 2.667c0 0.368-0.298 0.667-0.667 0.667s-0.667-0.299-0.667-0.667v0-2.667c0-0.368 0.299-0.667 0.667-0.667v0zM32 54.667c0.368 0 0.667 0.298 0.667 0.667v0 2.667c0 0.368-0.298 0.667-0.667 0.667s-0.667-0.298-0.667-0.667v0-2.667c0-0.368 0.299-0.667 0.667-0.667v0zM50.856 13.144c0.12 0.121 0.194 0.287 0.194 0.471s-0.074 0.35-0.195 0.471v0l-1.885 1.888c-0.121 0.121-0.288 0.195-0.472 0.195-0.369 0-0.667-0.299-0.667-0.668 0-0.184 0.075-0.351 0.196-0.472v0l1.888-1.885c0.121-0.12 0.287-0.194 0.471-0.194s0.35 0.074 0.471 0.195v0zM15.973 48.027c0.121 0.121 0.196 0.288 0.196 0.472s-0.075 0.351-0.196 0.472v0l-1.888 1.885c-0.123 0.137-0.3 0.222-0.497 0.222-0.368 0-0.667-0.298-0.667-0.667 0-0.197 0.086-0.374 0.222-0.496l0.001-0.001 1.885-1.888c0.121-0.121 0.288-0.196 0.472-0.196s0.351 0.075 0.472 0.196v0zM13.144 13.147c0.121-0.12 0.287-0.194 0.471-0.194s0.35 0.074 0.471 0.195v0l1.888 1.885c0.121 0.121 0.195 0.288 0.195 0.472 0 0.369-0.299 0.668-0.668 0.668-0.184 0-0.351-0.075-0.472-0.195v0l-1.885-1.888c-0.12-0.121-0.194-0.287-0.194-0.471s0.074-0.35 0.195-0.471v0zM48.027 48.027c0.121-0.121 0.288-0.196 0.472-0.196s0.351 0.075 0.472 0.196v0l1.885 1.888c0.137 0.123 0.222 0.3 0.222 0.497 0 0.368-0.298 0.667-0.667 0.667-0.197 0-0.374-0.086-0.496-0.222l-0.001-0.001-1.888-1.885c-0.121-0.121-0.196-0.288-0.196-0.472s0.075-0.351 0.196-0.472v0zM5.333 32c0-0.368 0.298-0.667 0.667-0.667v0h2.667c0.368 0 0.667 0.299 0.667 0.667s-0.299 0.667-0.667 0.667v0h-2.667c-0.368 0-0.667-0.298-0.667-0.667v0zM54.667 32c0-0.368 0.298-0.667 0.667-0.667v0h2.667c0.368 0 0.667 0.299 0.667 0.667s-0.298 0.667-0.667 0.667v0h-2.667c-0.368 0-0.667-0.298-0.667-0.667v0zM42.419 7.453c0.242 0.104 0.408 0.34 0.408 0.614 0 0.094-0.020 0.184-0.055 0.265l0.002-0.004-1.043 2.453c-0.098 0.254-0.34 0.43-0.623 0.43-0.368 0-0.667-0.299-0.667-0.667 0-0.103 0.023-0.201 0.065-0.288l-0.002 0.004 1.040-2.453c0.104-0.242 0.34-0.408 0.614-0.408 0.094 0 0.184 0.019 0.265 0.055l-0.004-0.002zM23.147 52.867c0.24 0.105 0.404 0.34 0.404 0.613 0 0.094-0.019 0.183-0.054 0.263l0.002-0.004-1.040 2.453c-0.109 0.228-0.338 0.383-0.603 0.383-0.368 0-0.667-0.298-0.667-0.667 0-0.085 0.016-0.166 0.045-0.241l-0.002 0.005 1.040-2.453c0.104-0.242 0.34-0.408 0.614-0.408 0.094 0 0.184 0.020 0.265 0.055l-0.004-0.002zM56.725 22.008c0.031 0.074 0.048 0.159 0.048 0.249 0 0.278-0.17 0.516-0.412 0.616l-0.004 0.002-2.472 1c-0.074 0.031-0.16 0.049-0.251 0.049-0.369 0-0.667-0.299-0.667-0.668 0-0.278 0.17-0.517 0.412-0.617l0.004-0.002 2.472-0.997c0.074-0.031 0.161-0.049 0.251-0.049 0.278 0 0.517 0.171 0.617 0.413l0.002 0.004zM10.984 40.488c0.031 0.074 0.049 0.161 0.049 0.251 0 0.278-0.171 0.517-0.413 0.617l-0.004 0.002-2.472 0.997c-0.080 0.037-0.173 0.058-0.272 0.058-0.368 0-0.667-0.298-0.667-0.667 0-0.286 0.18-0.529 0.432-0.624l0.005-0.002 2.472-1c0.074-0.031 0.161-0.049 0.251-0.049 0.278 0 0.517 0.17 0.617 0.413l0.002 0.004zM22.011 7.275c0.074-0.030 0.159-0.048 0.249-0.048 0.278 0 0.516 0.17 0.616 0.412l0.002 0.004 1 2.472c0.031 0.074 0.049 0.16 0.049 0.251 0 0.369-0.299 0.668-0.668 0.668-0.278 0-0.517-0.17-0.617-0.412l-0.002-0.004-0.997-2.472c-0.031-0.074-0.049-0.161-0.049-0.251 0-0.278 0.171-0.517 0.413-0.617l0.004-0.002zM40.491 53.016c0.074-0.031 0.161-0.049 0.251-0.049 0.278 0 0.517 0.17 0.617 0.413l0.002 0.004 0.997 2.472c0.037 0.080 0.058 0.173 0.058 0.272 0 0.368-0.298 0.667-0.667 0.667-0.286 0-0.529-0.18-0.624-0.432l-0.002-0.005-1-2.472c-0.031-0.074-0.049-0.161-0.049-0.251 0-0.278 0.17-0.517 0.413-0.617l0.004-0.002zM7.453 21.581c0.104-0.242 0.34-0.408 0.614-0.408 0.094 0 0.184 0.020 0.265 0.055l-0.004-0.002 2.453 1.043c0.228 0.109 0.383 0.338 0.383 0.603 0 0.368-0.299 0.667-0.667 0.667-0.085 0-0.166-0.016-0.241-0.045l0.005 0.002-2.453-1.040c-0.242-0.104-0.408-0.34-0.408-0.614 0-0.094 0.019-0.184 0.055-0.265l-0.002 0.004zM52.867 40.856c0.105-0.24 0.34-0.404 0.613-0.404 0.094 0 0.183 0.019 0.263 0.054l-0.004-0.002 2.453 1.040c0.254 0.098 0.43 0.34 0.43 0.623 0 0.368-0.298 0.667-0.667 0.667-0.103 0-0.201-0.023-0.288-0.065l0.004 0.002-2.453-1.040c-0.242-0.104-0.408-0.34-0.408-0.614 0-0.094 0.020-0.184 0.055-0.265l-0.002 0.004zM34.344 34.344l-4.691-4.691-11.043 15.733 15.731-11.045zM50.856 13.144l-15.557 22.155-22.155 15.557 15.557-22.155 22.155-15.557z"></path>
</svg>
