<!-- Generated by IcoMoon.io -->
<svg version="1.1" xmlns="http://www.w3.org/2000/svg" width="64" height="64" viewBox="0 0 64 64">
<title>slack</title>
<path fill="#4a154b" d="M13.445 40.44c-0.008 3.71-3.011 6.716-6.719 6.728h-0.001c-3.712-0.009-6.718-3.016-6.725-6.727v-0.001c0.011-3.709 3.016-6.712 6.725-6.72h6.721v6.72zM16.835 40.44c0.011-3.708 3.014-6.711 6.722-6.72h0.001c3.708 0.009 6.712 3.012 6.723 6.719v16.836c-0.009 3.71-3.013 6.715-6.722 6.725h-0.001c-3.709-0.011-6.714-3.016-6.723-6.724v-16.836zM23.557 13.445c-3.708-0.011-6.711-3.013-6.723-6.719v-0.001c0.009-3.71 3.013-6.715 6.722-6.725h0.001c3.709 0.011 6.714 3.016 6.723 6.724v6.721h-6.723zM23.557 16.835c3.709 0.011 6.712 3.014 6.723 6.722v0.001c-0.011 3.709-3.014 6.712-6.722 6.723h-16.833c-3.71-0.009-6.715-3.013-6.725-6.722v-0.001c0.011-3.709 3.016-6.714 6.724-6.723h16.833zM50.549 23.557c0.011-3.709 3.016-6.714 6.724-6.723h0.001c3.71 0.009 6.715 3.013 6.725 6.722v0.001c-0.011 3.709-3.016 6.714-6.724 6.723h-6.726v-6.723zM47.168 23.557c-0.011 3.71-3.017 6.715-6.727 6.723h-0.001c-3.708-0.011-6.711-3.014-6.72-6.722v-16.833c0.008-3.709 3.011-6.715 6.719-6.725h0.001c3.712 0.008 6.719 3.014 6.728 6.724v16.833zM40.44 50.549c3.712 0.008 6.719 3.014 6.728 6.724v0.001c-0.009 3.712-3.016 6.718-6.727 6.725h-0.001c-3.709-0.011-6.712-3.016-6.72-6.725v-6.726h6.72zM40.44 47.168c-3.71-0.011-6.714-3.017-6.72-6.727v-0.001c0.009-3.708 3.012-6.711 6.719-6.72h16.836c3.709 0.008 6.715 3.011 6.725 6.719v0.001c-0.008 3.712-3.014 6.719-6.724 6.728h-16.836z"></path>
</svg>
