<!-- Generated by IcoMoon.io -->
<svg version="1.1" xmlns="http://www.w3.org/2000/svg" width="64" height="64" viewBox="0 0 64 64">
<title>stackoverflow</title>
<path fill="#fe7a16" d="M50.629 58.307v-17.077h5.691v22.771h-51.403v-22.771h5.68v17.077h40.032zM16.296 52.616h28.637v-5.699h-28.637v5.699zM16.987 39.677l27.947 5.837 1.203-5.52-27.941-5.832-1.208 5.515zM20.611 26.195l25.88 12.080 2.408-5.2-25.883-12.080-2.405 5.163v0.037zM27.851 13.435l21.912 18.28 3.624-4.32-21.909-18.275-3.6 4.312-0.027 0.003zM42.003 0l-4.656 3.451 17.080 22.944 4.656-3.451-17.080-22.944z"></path>
</svg>
