<!-- Generated by IcoMoon.io -->
<svg version="1.1" xmlns="http://www.w3.org/2000/svg" width="64" height="64" viewBox="0 0 64 64">
<title>stylus</title>
<path d="M36.459 23.627c-1.189-0.944-4.528 0.637-5.472 2.981-1.187 2.979-2.947 7.325-4.672 9.229-1.821 2.003-2.003 0.456-1.821-0.699 0.421-2.72 3.075-9.019 4.525-10.795-0.539-0.797-4.053-0.683-6.496 3.109-0.912 1.432-2.995 6.203-5.307 9.963-0.507 0.813-1.141 0.245-0.651-1.659 0.552-2.2 2.181-8.237 4.28-12.992 5.504-1.091 11.347-1.856 15.824-1.872 0.603-0.163 1.008-0.701 0-0.733-3.859-0.131-9.653 0.325-15.075 1.011 1.043-2.085 2.165-3.744 3.304-4.445-1.237-0.781-3.744-0.472-5.176 1.645-0.626 0.935-1.249 2.023-1.799 3.153l-0.073 0.167c-3.973 0.619-7.376 1.317-9.101 1.971-1.789 0.683-1.595 2.848-0.504 2.44 2.264-0.845 5.323-1.725 8.725-2.507-2.165 4.885-3.859 10.648-4.264 12.992-1.011 5.699 2.523 5.664 4.248 3.419 1.872-2.459 5.779-11.104 6.381-12.013 0.179-0.309 0.424-0.147 0.293 0.128-4.363 8.709-3.989 12.080-0.456 11.331 1.595-0.341 4.347-3.075 5.064-4.493 0.147-0.341 0.456-0.309 0.389-0.163-2.768 7.181-6.283 12.992-8.643 14.816-2.149 1.643-3.747-1.923 3.856-7.035 1.125-0.763 0.603-1.805-0.667-1.448-3.923 0.619-15.155 4.184-20.088 7.603-0.376 0.261-0.717 0.472-0.701 1.011 0.016 0.309 0.555 0.195 0.816 0.032 6.381-3.827 11.605-5.323 17.597-6.579 0.080 0.035 0.179 0.051 0.259 0.019 0.277-0.067 0.261 0.080 0.083 0.195-0.24 0.144-0.54 0.301-0.847 0.445l-0.065 0.027c-4.037 1.579-6.48 5.061-5.616 6.837 0.733 1.531 4.688 0.976 6.56-0.032 4.592-2.491 7.928-7.376 10.208-14.115 1.987-5.976 4.493-12.747 5.080-12.944zM9.856 42.92c1.661-1.987 1.856-4.037 0.571-7.848-0.813-2.408-2.165-4.264-1.173-5.763 1.059-1.595 3.307-0.048 1.435 2.083l0.373 0.261c2.248 0.261 3.355-2.816 1.677-3.696-4.429-2.312-8.304 2.133-6.595 7.277 0.733 2.181 1.76 4.493 0.928 6.333-0.715 1.579-2.099 2.507-3.027 2.539-1.939 0.099-0.651-4.347 1.579-5.453 0.195-0.096 0.472-0.227 0.211-0.552-2.749-0.309-4.363 0.96-5.291 2.733-2.701 5.16 5.128 7.067 9.312 2.085zM63.139 37.416c-7.472-0.976-23.587 0.325-30.701 2.216-2.117 0.552-1.531 1.675-0.456 1.464 0.016 0 0.472-0.115 0.488-0.115 5.845-1.139 20.024-2.133 28.293-0.552 0.995 0.179 3.973-2.8 2.376-3.013zM38.541 36.539c2.083-1.043 5.176-7.491 7.211-11.021 0.147-0.261 0.408-0.051 0.261 0.128-5.144 8.856-2.963 9.883-0.928 9.752 2.72-0.163 5.227-4.069 5.779-4.949 0.229-0.341 0.36-0.064 0.229 0.181-0.131 0.405-0.603 1.123-1.043 2.099-0.619 1.384 0.032 1.92 0.571 2.165 0.845 0.408 3.157 0.147 3.515-1.269-2.309-0.048 3.224-10.957 3.795-11.624-1.547-0.896-3.939 0.083-5.032 2.229-2.325 4.608-4.28 8.32-5.501 8.384-2.376 0.131 2.736-10.272 3.565-10.597-0.504-0.733-3.744-0.424-5.552 2.376-0.651 1.011-4.621 8.043-5.6 9.2-1.725 2.051-1.856 0.293-1.368-1.76 0.163-0.699 0.44-1.595 0.8-2.587 1.139-2.573 2.36-3.387 3.109-4.219 5.029-5.581 7.912-10.109 6.771-11.883-1.008-1.579-4.379-0.88-6.544 2.376-3.989 5.976-7.667 14.163-8.139 17.909-0.456 3.744 2.261 4.019 4.101 3.109zM58.208 27.747c0.635 1.563 1.595 3.109 1.024 4.477-0.472 1.171-1.091 1.661-1.773 1.773-0.96 0.163-0.701-2.848 0.944-3.744 0.147-0.080 0.357-0.472 0.163-0.699-2.083-0.115-3.256 0.877-3.891 2.197-1.84 3.859 4.168 4.915 7.115 1.123 1.171-1.515 1.221-3.011 0.096-5.731-0.715-1.725-1.805-3.011-1.123-4.152 0.733-1.203 2.491-0.163 1.173 1.451l0.293 0.163c1.709 0.096 2.408-2.181 1.107-2.752-3.435-1.464-6.643 2.229-5.128 5.893zM40.659 25.581c0.179-0.408 0.293-0.52 0.603-1.205 1.789-3.939 4.037-8.091 5.584-10.027 0.96-1.011 2.309 0.357-0.131 4.101-1.474 2.269-3.067 4.245-4.839 6.045l0.005-0.005v0.016c-0.456 0.504-0.864 0.928-1.043 1.173-0.131 0.163-0.277 0.131-0.179-0.099z"></path>
</svg>
