<!-- Generated by IcoMoon.io -->
<svg version="1.1" xmlns="http://www.w3.org/2000/svg" width="64" height="64" viewBox="0 0 64 64">
<title>sublimetext</title>
<path d="M32 55.776h25.395c1.595 0 2.917-0.904 2.917-2v-5.123c-0.667 0.669-1.723 1.088-2.917 1.088h-50.784c-1.187 0-2.243-0.419-2.92-1.080v5.107c0 1.101 1.307 2 2.92 2l25.389 0.008zM32 59.651h27.848c2.291 0 4.152-1.376 4.152-3.061 0-0.133-0.021-0.267-0.043-0.395l-4.28-45.36c-0.136-1.061-0.947-1.907-1.853-2.256l3.243 38.416v6.781c0 1.517-1.64 2.757-3.683 2.757h-50.771c-2.021 0-3.672-1.251-3.672-2.757v-6.781l3.235-38.416c-0.907 0.355-1.72 1.2-1.853 2.259l-4.283 45.344c-0.032 0.136-0.040 0.259-0.040 0.4 0 1.68 1.853 3.069 4.149 3.069h27.851zM57.021 7.907l-0.077-0.84c0-0.056 0-0.099-0.011-0.163l-0.016-0.187c-0.163-1.344-1.267-2.373-2.885-2.373h-44.072c-1.611 0-2.709 1.024-2.88 2.36l-0.008 0.203-0.008 0.16-0.080 0.837-3.28 39.096c0 1.099 1.304 2 2.912 2h50.787c1.605 0 2.907-0.901 2.917-2l-3.299-39.093zM41.859 32.723c-0.709 1.861-2.341 3.189-4.12 4-1.933 0.888-4.093 1.232-6.219 1.264-2.251 0.032-4.52-0.2-6.712-0.72-1.109-0.251-2.259-0.552-3.309-1.011-0.944-0.413-1.72-1.349-1.699-2.411 0.021-1.077 0.797-1.976 1.784-2.368 1.032-0.411 2.024-0.24 3.032 0.12 2.24 0.773 4.616 1.096 6.984 1.016 1.347-0.040 3.707-0.76 3.328-2.845-0.080-0.461-0.451-1.109-0.92-1.547-0.368-0.365-1.141-0.723-1.64-0.853-1.104-0.301-2.24-0.528-3.36-0.771-2.256-0.496-3.459-0.869-5.459-2.083-1.763-1.051-2.141-1.728-2.413-3.307-0.355-2.067 0.656-3.704 2.32-4.957 3.72-2.827 7.285-2.728 11.683-1.923 1.077 0.2 2.371 0.381 3.317 0.957 0.933 0.563 1.456 1.699 1.053 2.755-0.376 1-1.328 1.152-2.36 1.040-1.109-0.117-1.563-0.411-2.611-0.608-2.192-0.4-3-0.736-5.109-0.136-0.837 0.24-1.973 1.037-1.547 2.085 0.36 0.867 1.683 1.149 2.472 1.363 2.168 0.579 3.861 1.245 6.019 1.88 2.024 0.589 3.557 1.709 4.819 3.491 1.123 1.589 1.363 3.776 0.683 5.587l-0.011-0.013-0.005-0.005z"></path>
</svg>
