<!-- Generated by IcoMoon.io -->
<svg version="1.1" xmlns="http://www.w3.org/2000/svg" width="64" height="64" viewBox="0 0 64 64">
<title>tinder</title>
<path fill="#ff6b6b" d="M24.845 25.203c0.12 0.195 0.328 0.32 0.565 0.32 0.16 0 0.309-0.056 0.421-0.152l0.040-0.032c1.040-0.867 1.976-1.76 2.856-2.712 8.557-9.288 3.56-20.691 3.52-20.797-0.24-0.56-0.080-1.224 0.4-1.584 0.52-0.36 1.16-0.32 1.64 0.088 29 26.971 21.32 47.515 20.76 48.899-2.32 8.376-11.56 14.437-22.517 14.747-0.368 0.021-0.645 0.021-0.968 0.021-12.939 0-23.939-7.971-23.939-18.152v-0.16c0-14.125 12.787-28.059 13.357-28.651 0.363-0.397 0.92-0.52 1.4-0.28 0.48 0.203 0.792 0.68 0.776 1.203-0.115 2.763 0.445 5.16 1.683 7.2v0.040l0.005 0.003z"></path>
</svg>
