<!-- Generated by IcoMoon.io -->
<svg version="1.1" xmlns="http://www.w3.org/2000/svg" width="64" height="64" viewBox="0 0 64 64">
<title>tor</title>
<path fill="#7e4798" d="M46.875 32.536c-2.027-1.845-4.589-3.336-7.211-4.827-1.189-0.656-4.827-3.515-3.573-7.568l-2.269-0.955c3.579-5.541 8.227-11.024 13.944-16.149-4.589 1.549-8.64 3.936-11.677 8.165 1.787-3.752 4.707-7.448 7.925-11.203-4.411 3.16-8.224 6.733-10.611 11.501l1.672-6.675c-2.384 4.288-4.053 8.64-4.709 12.989l-3.512-1.427-0.595 0.475c3.099 5.541 1.491 8.464-0.059 9.475-3.099 2.088-7.568 4.768-9.835 7.091-4.291 4.411-5.541 8.581-5.123 14.123 0.419 7.093 5.603 12.995 12.453 15.317 3.040 1.013 5.84 1.131 8.939 1.131 5.005 0 10.131-1.309 13.885-4.469 3.861-3.219 6.304-8.025 6.317-13.403v-0.002c0-0.017 0-0.038 0-0.059 0-5.351-2.293-10.167-5.949-13.518l-0.014-0.012zM37.4 56.195c-0.24 1.072-1.013 2.384-1.965 3.576 0.357-0.656 0.656-1.312 0.835-2.027 1.491-5.304 2.147-7.744 1.432-13.587-0.12-0.597-0.36-2.501-1.256-4.589-1.248-3.16-3.157-6.141-3.392-6.795-0.419-1.013-1.013-5.304-1.075-8.224 0.061 2.501 0.237 7.091 0.893 8.877 0.179 0.6 1.907 3.277 3.16 6.557 0.832 2.264 1.013 4.352 1.189 4.944 0.597 2.685-0.12 7.213-1.069 11.501-0.296 1.549-1.136 3.339-2.208 4.709 0.6-0.835 1.072-1.907 1.432-3.16 0.717-2.501 1.013-5.72 0.949-7.747-0.056-1.189-0.592-3.752-1.488-6.075-0.536-1.253-1.312-2.563-1.845-3.459-0.597-0.893-0.597-2.859-0.835-5.123 0.056 2.443-0.181 3.693 0.416 5.421 0.357 1.011 1.667 2.443 2.024 3.813 0.536 1.848 1.072 3.875 1.016 5.125 0 1.429-0.059 4.053-0.717 6.915-0.419 2.144-1.373 3.992-2.92 5.181 0.656-0.832 1.013-1.667 1.192-2.501 0.237-1.251 0.296-2.443 0.416-3.933 0.033-0.384 0.052-0.831 0.052-1.282 0-1.171-0.127-2.313-0.367-3.412l0.019 0.105c-0.477-2.147-1.251-4.288-1.611-5.781 0.059 1.669 0.717 3.755 1.016 5.96 0.237 1.611 0.117 3.216 0.056 4.645-0.056 1.672-0.595 4.592-1.312 6.021-0.715-0.299-0.952-0.717-1.432-1.309-0.595-0.776-0.952-1.611-1.309-2.565-0.305-0.69-0.572-1.505-0.759-2.351l-0.017-0.089c-0.046-0.327-0.073-0.705-0.073-1.089 0-1.809 0.586-3.48 1.579-4.836l-0.016 0.023c1.251-1.789 1.491-1.909 1.907-3.992-0.595 1.845-1.011 2.024-2.323 3.576-1.491 1.725-1.728 4.229-1.728 6.256 0 0.835 0.357 1.789 0.656 2.685 0.357 0.949 0.715 1.904 1.192 2.619 0.357 0.595 0.835 1.011 1.251 1.309-1.549-0.416-3.157-1.011-4.171-1.845-2.501-2.147-4.707-5.779-5.005-9-0.237-2.619 2.144-6.435 5.541-8.341 2.861-1.669 3.515-3.517 4.112-6.557-0.835 2.621-1.669 4.888-4.411 6.261-3.933 2.144-5.96 5.6-5.779 8.939 0.299 4.229 1.965 7.152 5.363 9.477 0.776 0.533 1.848 1.069 2.981 1.491-4.232-1.016-4.768-1.611-6.197-3.277 0-0.12-0.357-0.36-0.357-0.416-1.907-2.147-4.291-5.84-5.125-9.237-0.299-1.192-0.597-2.443-0.237-3.635 1.549-5.603 4.944-7.747 8.341-10.067 0.835-0.6 1.669-1.136 2.443-1.731 1.907-1.491 2.384-5.365 2.8-7.568-0.773 2.683-1.608 6.021-3.099 7.091-0.773 0.597-1.728 1.072-2.501 1.611-3.515 2.384-7.032 4.648-8.64 10.427-0.357 1.493-0.117 2.565 0.237 3.995 0.893 3.512 3.277 7.328 5.304 9.592l0.357 0.36c0.893 1.016 2.027 1.787 3.397 2.323-1.314-0.314-2.466-0.743-3.546-1.292l0.090 0.042c-5.541-2.68-9.235-8.461-9.475-13.171-0.477-9.592 4.112-12.392 8.403-15.909 2.384-1.965 5.72-2.92 7.627-6.435 0.357-0.776 0.597-2.443 0.12-4.232-0.179-0.597-1.072-2.741-1.432-3.219l5.304 2.325c-0.117 2.501-0.179 4.528 0.299 6.376 0.533 2.027 3.157 4.944 4.229 8.344 2.088 6.427 1.555 14.829 0.061 21.384z"></path>
</svg>
