<!-- Generated by IcoMoon.io -->
<svg version="1.1" xmlns="http://www.w3.org/2000/svg" width="64" height="64" viewBox="0 0 64 64">
<title>trello</title>
<path fill="#0079bf" d="M56 0h-48c-4.419 0-8 3.581-8 8v48c0 4.416 3.581 8 8 8h48c4.416 0 8-3.584 8-8v-48c0-4.419-3.584-8-8-8zM27.84 48.48c0 2.12-1.72 3.84-3.84 3.84h-11.84c-2.12 0-3.84-1.723-3.84-3.84v-36.32c0-2.12 1.72-3.84 3.84-3.84h11.84c2.12 0 3.84 1.72 3.84 3.84v36.32zM55.68 32.48c0 2.117-1.72 3.84-3.84 3.84h-11.84c-2.12 0-3.84-1.723-3.84-3.84v-20.32c0-2.12 1.723-3.84 3.84-3.84h11.84c2.12 0 3.84 1.72 3.84 3.84v20.32z"></path>
</svg>
