<!-- Generated by IcoMoon.io -->
<svg version="1.1" xmlns="http://www.w3.org/2000/svg" width="64" height="64" viewBox="0 0 64 64">
<title>twitter</title>
<path fill="#1da1f2" d="M63.877 12.184c-2.36 1.037-4.88 1.744-7.533 2.067 2.704-1.629 4.784-4.197 5.768-7.261-2.536 1.48-5.347 2.557-8.339 3.157-2.389-2.557-5.795-4.157-9.576-4.157-7.245 0-13.12 5.875-13.12 13.112 0 1.040 0.12 2.040 0.339 2.997-10.907-0.515-20.573-5.752-27.043-13.669-1.139 1.925-1.776 4.163-1.776 6.6 0 4.56 2.32 8.568 5.835 10.923-2.152-0.069-4.176-0.661-5.941-1.643v0.163c0 6.36 4.515 11.664 10.523 12.872-1.101 0.296-2.264 0.456-3.456 0.456-0.837 0-1.64-0.080-2.443-0.229 1.683 5.208 6.52 9.005 12.277 9.112-4.48 3.517-10.157 5.613-16.272 5.613-1.040 0-2.077-0.061-3.12-0.179 5.837 3.717 12.715 5.891 20.152 5.891 24.144 0 37.331-19.989 37.331-37.296 0-0.557 0-1.12-0.040-1.68 2.563-1.837 4.8-4.16 6.56-6.795l-0.125-0.053z"></path>
</svg>
