<!-- Generated by IcoMoon.io -->
<svg version="1.1" xmlns="http://www.w3.org/2000/svg" width="64" height="64" viewBox="0 0 64 64">
<title>vim</title>
<path fill="#019733" d="M64 31.963h-0.072l-11.515-11.515 11.475-11.771v-4.781l-1.731-1.728h-21.861l-1.76 1.613v2.787l-6.496-6.496v-0.072l-0.040 0.037-0.037-0.037v0.072l-3.44 3.443-1.435-1.437h-21.661l-1.701 1.845v5.027l1.643 1.643h1.92v14.16l-7.216 7.213h-0.072l0.037 0.035-0.037 0.037h0.072l7.216 7.216v17.245l2.419 1.395h6.192l4.952-5.077 11.109 11.109v0.075l0.040-0.037 0.037 0.037v-0.075l6.693-6.691h1.293c0.296 0 0.563-0.187 0.667-0.477l0.389-1.136c0.075-0.224 0.032-0.459-0.099-0.637l3.899-3.899-1.632 5.232c-0.115 0.376 0.096 0.771 0.472 0.885 0.067 0.021 0.139 0.032 0.208 0.032h4.864c0.283-0.003 0.536-0.171 0.648-0.435l0.44-1.051c0.067-0.173 0.064-0.368-0.011-0.541-0.072-0.173-0.213-0.309-0.389-0.379-0.077-0.032-0.165-0.051-0.259-0.053h-0.2l2.24-7.051h3.285l-2.709 8.589c-0.115 0.376 0.096 0.771 0.469 0.885 0.067 0.021 0.139 0.032 0.211 0.032h5.339c0.293 0 0.552-0.176 0.661-0.453l0.437-1.141c0.136-0.368-0.056-0.773-0.421-0.909-0.077-0.029-0.16-0.045-0.243-0.045h-0.387l3.016-9.795c0.072-0.219 0.032-0.461-0.104-0.64l-1-1.344-0.008-0.013c-0.136-0.171-0.339-0.272-0.557-0.272h-3.829c-0.189 0-0.376 0.080-0.507 0.216l-1.067 1.171h-1.664l-0.112-0.123 11.853-11.853h0.075l-0.037-0.029 0.037-0.037zM26.235 56.371l4.211-12.024h-1.336l0.792-0.811h4.424l-4.168 12.147h1.661l-0.211 0.688h-5.373zM36.088 36.328l0.4 0.403-0.717 2.459-0.6 0.603h-2.584l-0.483-0.483 0.829-2.323 0.768-0.659h2.387zM14.907 55.544h-4.568l-0.699-0.4v-46.901h-3.296l-0.267-0.267v-3.136l0.381-0.411h19.656l0.568 0.571v2.955l-0.379 0.461h-2.877v23.168l23.485-23.168h-5.563l-0.467-0.501v-3.101l0.323-0.296h19.973l0.352 0.355v2.853l-26.92 27.608h-0.995c-0.040-0.003-0.075 0-0.112 0.003l-0.053 0.008c-0.12 0.027-0.229 0.080-0.317 0.16l-0.915 0.787-0.011 0.008c-0.088 0.083-0.157 0.184-0.195 0.296l-0.789 2.213-16.317 16.736zM54.288 45.005l1.264-1.384h3.557l0.824 1.107-3.373 10.952h1.315l-0.213 0.557h-4.755l2.997-9.504h-5.373l-2.872 9.043h1.131l-0.195 0.464h-4.28l2.952-9.461h-5.589l-2.832 8.904h1.163l-0.192 0.557h-4.429l4.037-11.893h-1.563l0.243-0.723h4.4l1.384 1.432h2.416l1.309-1.477h2.829l1.304 1.427h2.541z"></path>
</svg>
