<!-- Generated by IcoMoon.io -->
<svg version="1.1" xmlns="http://www.w3.org/2000/svg" width="64" height="64" viewBox="0 0 64 64">
<title>vlcmediaplayer</title>
<path fill="#f80" d="M31.709 35.901c10.019 0 12.944-3.592 13.507-4.464l-3.627-11.557c-0.96 0.907-3.539 2.499-9.813 2.499-6.112 0-8.501-1.512-9.387-2.427l-3.707 11.792c0.608 0.963 3.347 4.16 13.027 4.16zM31.779 10.152c2.296-0.026 4.471-0.521 6.441-1.393l-0.105 0.041-2.288-7.291c-0.198-0.52-0.582-0.932-1.070-1.16l-0.013-0.005s-0.307-0.344-2.659-0.344-2.813 0.363-2.813 0.363c-0.51 0.215-0.902 0.624-1.089 1.133l-0.004 0.014-2.357 7.507c1.765 0.68 3.807 1.092 5.939 1.136l0.019 0zM60.24 62.184c0.004-0.033 0.006-0.072 0.006-0.111 0-0.113-0.018-0.221-0.051-0.323l0.002 0.007-6.224-20.352c-0.236-0.654-0.837-1.118-1.551-1.149l-0.004-0h-4.435l0.533 1.707c-0.64 1.293-3.968 6.347-16.808 6.347-12.267 0-15.541-4.613-16.293-6.155l0.595-1.899h-4.429c-0.718 0.031-1.319 0.496-1.551 1.137l-0.004 0.012-6.224 20.355c-0.031 0.095-0.049 0.204-0.049 0.317 0 0.029 0.001 0.058 0.003 0.086l-0-0.004-0.005 0.053c0.010 0.222 0.033 0.429 0.068 0.632l-0.004-0.029c0.109 0.666 0.673 1.171 1.358 1.187h53.652c0.687-0.015 1.251-0.52 1.359-1.178l0.001-0.008c0.030-0.174 0.052-0.382 0.061-0.593l0-0.010z"></path>
</svg>
