<!-- Generated by IcoMoon.io -->
<svg version="1.1" xmlns="http://www.w3.org/2000/svg" width="64" height="64" viewBox="0 0 64 64">
<title>yelp</title>
<path fill="#d32323" d="M56.296 48.603c-0.376 2.584-5.651 9.288-8.077 10.259-0.829 0.331-1.629 0.251-2.267-0.24-0.411-0.32-0.837-0.973-6.525-10.205l-1.688-2.752c-0.651-0.987-0.531-2.285 0.277-3.277 0.792-0.957 1.952-1.317 2.963-0.933 0.053 0.032 4.256 1.416 4.256 1.416 9.568 3.144 9.88 3.264 10.285 3.568 0.605 0.496 0.885 1.267 0.76 2.168h0.016zM37.12 34.557c-0.677-1.029-0.667-2.243 0.032-3.080l2.661-3.624c5.837-7.957 6.163-8.376 6.557-8.653 0.683-0.456 1.52-0.477 2.323-0.085 2.317 1.125 6.995 8.077 7.277 10.744v0.091c0.077 0.909-0.28 1.648-0.923 2.091-0.437 0.28-0.837 0.443-11.715 3.083-1.72 0.437-2.677 0.677-3.24 0.877l0.077-0.080c-1.077 0.32-2.277-0.197-2.957-1.277l-0.093-0.085zM30.443 30.435c-0.52 0.163-2.104 0.653-4.051-2.501 0 0-13.149-20.691-13.459-21.328-0.187-0.72 0.040-1.531 0.68-2.187 1.957-2.029 12.579-5 15.36-4.323 0.907 0.235 1.531 0.803 1.749 1.611 0.16 0.893 1.453 20.096 1.64 24.397 0.176 3.68-1.4 4.173-1.92 4.331zM32.179 51.483c-0.029 10.064-0.051 10.4-0.216 10.877-0.28 0.749-0.923 1.251-1.816 1.413-2.56 0.437-10.579-2.523-12.251-4.507-0.32-0.437-0.52-0.875-0.56-1.315-0.043-0.32 0-0.64 0.12-0.923 0.2-0.52 0.48-0.92 7.68-9.36l2.117-2.517c0.723-0.92 2-1.2 3.197-0.723 1.163 0.44 1.883 1.44 1.803 2.52v4.48l-0.075 0.053zM10.357 45.045c-0.787-0.027-1.493-0.499-1.907-1.28-0.296-0.573-0.504-1.52-0.635-2.672-0.365-3.469 0.077-8.704 1.117-10.365 0.488-0.76 1.2-1.163 1.987-1.136 0.52 0 0.984 0.163 11.277 4.4l3.013 1.197c1.077 0.4 1.744 1.52 1.68 2.803-0.080 1.24-0.795 2.197-1.851 2.48l-4.28 1.36c-9.573 3.080-9.891 3.16-10.395 3.12l-0.008 0.093zM50.296 63.992h-0.011l-0.013 0.008 0.024-0.008z"></path>
</svg>
