<!-- Generated by IcoMoon.io -->
<svg version="1.1" xmlns="http://www.w3.org/2000/svg" width="64" height="64" viewBox="0 0 64 64">
<title>youtube</title>
<path fill="#f00" d="M62.653 16.547c-0.773-2.707-2.861-4.795-5.511-5.554l-0.057-0.014c-4.987-1.336-25.056-1.336-25.056-1.336s-20.019-0.027-25.056 1.336c-2.707 0.773-4.795 2.861-5.554 5.511l-0.014 0.057c-0.886 4.561-1.393 9.806-1.393 15.17 0 0.109 0 0.218 0.001 0.327l-0-0.017c-0 0.075-0 0.164-0 0.252 0 5.363 0.507 10.608 1.475 15.69l-0.083-0.52c0.773 2.707 2.861 4.795 5.511 5.554l0.057 0.014c4.981 1.339 25.056 1.339 25.056 1.339s20.016 0 25.056-1.339c2.707-0.773 4.795-2.861 5.554-5.511l0.014-0.057c0.849-4.467 1.335-9.605 1.335-14.857 0-0.198-0.001-0.397-0.002-0.595l0 0.030c0.002-0.184 0.002-0.402 0.002-0.621 0-5.253-0.486-10.392-1.416-15.375l0.080 0.515zM25.624 41.603v-19.181l16.704 9.605z"></path>
</svg>
